<?xml version="1.0" standalone="no"?>
<!DOCTYPE svg PUBLIC "-//W3C//DTD SVG 20010904//EN"
 "http://www.w3.org/TR/2001/REC-SVG-20010904/DTD/svg10.dtd">
<svg version="1.0" xmlns="http://www.w3.org/2000/svg"
 width="1122.000000pt" height="1402.000000pt" viewBox="0 0 1122.000000 1402.000000"
 preserveAspectRatio="xMidYMid meet">

<g transform="translate(0.000000,1402.000000) scale(0.100000,-0.100000)"
fill="#000000" stroke="none">
<path d="M0 8871 c0 -4110 3 -5150 13 -5154 10 -4 10 -6 0 -6 -10 -1 -13 -379
-13 -1856 l0 -1855 5610 0 5610 0 0 7010 0 7010 -5150 0 c-4670 0 -5150 -2
-5150 -16 0 -14 -1 -14 -16 0 -14 14 -69 16 -460 16 l-444 0 0 -5149z m845
4941 c-3 -3 -11 0 -18 7 -9 10 -8 11 6 5 10 -3 15 -9 12 -12z m925 -69 c0 -8
-4 -12 -9 -9 -13 8 -42 -4 -35 -15 3 -5 9 -7 13 -5 4 3 7 -5 7 -17 -1 -17 5
-23 29 -25 17 -2 38 -11 48 -19 15 -15 17 -15 17 1 0 14 4 15 21 6 12 -7 18
-18 15 -26 -3 -8 -1 -14 3 -14 5 0 11 6 14 14 3 8 21 17 39 21 18 4 39 12 47
19 12 9 13 8 6 -4 -4 -8 -15 -23 -23 -32 -14 -17 -13 -18 11 -18 21 0 27 -5
27 -21 0 -11 5 -29 10 -40 9 -15 7 -21 -5 -25 -8 -3 -15 -13 -15 -22 0 -12 3
-13 12 -4 7 7 20 12 30 12 16 0 17 3 7 23 -9 18 -9 20 1 10 15 -14 52 1 49 20
-5 44 9 48 46 11 30 -29 28 -48 -3 -52 -19 -3 -63 -62 -46 -62 3 0 -6 -14 -20
-31 -14 -17 -26 -35 -26 -40 0 -5 -4 -9 -10 -9 -5 0 -7 7 -4 15 4 9 0 15 -9
15 -8 0 -17 10 -21 22 -4 19 -7 20 -18 9 -10 -11 -10 -14 0 -18 6 -3 9 -9 6
-15 -4 -7 -9 -6 -14 1 -4 7 -16 13 -28 14 -11 0 -19 4 -16 8 2 4 -4 9 -14 12
-9 2 -26 8 -36 13 -12 4 -17 4 -13 -2 3 -5 -2 -10 -11 -10 -9 -1 -25 -5 -35
-9 -13 -5 -16 -3 -11 8 9 24 -50 60 -91 55 -31 -4 -33 -2 -33 24 1 15 5 28 10
28 5 0 6 5 3 11 -4 6 -13 8 -21 5 -8 -3 -13 -2 -13 2 1 4 1 16 0 27 -2 20 -2
20 -16 1 -8 -11 -15 -15 -15 -9 0 7 4 14 10 18 5 3 8 11 6 18 -1 7 -1 9 1 4 3
-4 9 -5 14 -1 5 3 9 -4 9 -16 0 -20 1 -20 29 -5 41 20 46 33 25 56 -9 11 -19
34 -21 53 -3 26 1 35 19 43 26 12 48 0 48 -24z m-959 -473 c-12 -407 -27 -839
-36 -1045 -9 -207 -25 -514 -30 -590 -2 -38 -7 -144 -10 -235 -3 -91 -8 -199
-10 -240 -9 -156 -18 -286 -21 -300 -1 -8 -3 -36 -3 -62 -1 -29 -6 -48 -12
-48 -9 0 -10 23 -5 83 3 45 13 222 21 392 8 171 17 342 19 380 11 138 16 244
26 515 6 151 15 379 20 505 5 127 14 408 20 625 6 217 14 415 18 440 l7 45 3
-45 c2 -25 -1 -214 -7 -420z m789 304 c0 -8 -5 -12 -10 -9 -6 4 -8 11 -5 16 9
14 15 11 15 -7z m-720 -389 c1 -152 -3 -231 -10 -233 -14 -5 -13 -22 3 -22 7
0 11 -12 11 -33 -1 -17 -3 -147 -5 -287 -3 -234 -4 -243 -9 -110 l-5 145 -6
-105 c-2 -58 -5 84 -5 315 0 265 3 370 7 285 4 -95 6 -55 4 140 -1 168 1 248
6 205 4 -38 8 -173 9 -300z m720 345 c0 -5 -5 -10 -11 -10 -5 0 -7 5 -4 10 3
6 8 10 11 10 2 0 4 -4 4 -10z m5117 -92 c-3 -7 -5 -2 -5 12 0 14 2 19 5 13 2
-7 2 -19 0 -25z m228 -208 c10 -11 16 -20 13 -20 -3 0 -13 9 -23 20 -10 11
-16 20 -13 20 3 0 13 -9 23 -20z m-4635 -20 c0 -10 -26 -20 -33 -13 -3 3 -3
11 0 18 5 14 33 9 33 -5z m-1076 -5 c-4 -8 -7 -15 -9 -15 -2 0 -5 7 -9 15 -3
9 0 15 9 15 9 0 12 -6 9 -15z m1092 -20 c-3 -8 -2 -15 2 -15 5 0 17 -7 28 -16
18 -15 18 -15 -2 -5 -18 9 -23 6 -34 -17 l-13 -27 -8 29 c-6 23 -4 34 9 47 21
22 26 23 18 4z m4724 -50 c13 -14 21 -25 18 -25 -2 0 -15 11 -28 25 -13 14
-21 25 -18 25 2 0 15 -11 28 -25z m-4660 -19 c0 -8 -4 -18 -10 -21 -5 -3 -10
3 -10 14 0 12 5 21 10 21 6 0 10 -6 10 -14z m-46 -28 c-9 -31 -12 -34 -27 -18
-9 10 -9 11 1 6 8 -5 12 0 12 13 0 12 5 21 11 21 6 0 8 -9 3 -22z m-803 -44
c13 -16 12 -16 -6 -6 -27 16 -65 49 -65 57 0 9 53 -30 71 -51z m929 29 c0 -21
-7 -31 -27 -40 -36 -17 -39 -16 -39 6 0 11 3 18 7 16 3 -3 17 7 29 20 29 31
30 31 30 -2z m-80 -14 c0 -4 -7 -6 -15 -3 -8 4 -15 10 -15 15 0 4 7 6 15 3 8
-4 15 -10 15 -15z m-999 -44 c10 -4 19 -11 19 -16 0 -6 -4 -7 -10 -4 -5 3 -10
0 -11 -7 0 -7 -5 -3 -11 10 -6 12 -14 22 -19 22 -4 0 -4 10 -1 23 l7 22 3 -22
c2 -12 12 -25 23 -28z m1139 -100 c0 -8 -4 -15 -9 -15 -5 0 -11 7 -15 15 -3 9
0 15 9 15 8 0 15 -7 15 -15z m-842 -39 c17 -6 19 -10 9 -21 -10 -11 -17 -8
-39 16 -16 17 -28 36 -28 42 1 7 9 2 18 -9 10 -12 28 -25 40 -28z m4949 7 c-4
-28 -22 -32 -42 -11 -7 8 -5 9 8 5 11 -4 16 -3 12 3 -7 12 2 30 16 30 5 0 8
-12 6 -27z m-47 -22 c15 -47 7 -74 -25 -89 -14 -6 -25 -16 -25 -22 0 -5 -4
-10 -8 -10 -9 0 -11 8 -15 70 -2 34 11 62 25 54 3 -2 4 4 1 14 -3 12 2 18 15
19 14 1 23 -9 32 -36z m-4040 14 c7 -8 9 -15 6 -15 -4 0 -14 7 -22 15 -9 8
-11 15 -6 15 5 0 15 -7 22 -15z m-1437 -61 c17 -5 17 -7 1 -18 -11 -8 -14 -18
-9 -27 8 -15 -39 33 -65 65 -14 18 -13 18 8 12 17 -6 22 -3 23 11 1 13 4 10
12 -9 6 -16 19 -31 30 -34z m1385 8 c26 -20 35 -23 42 -13 4 8 13 10 20 6 9
-5 11 -4 6 3 -10 16 17 15 32 0 7 -7 12 -19 12 -28 0 -9 17 -25 37 -36 41 -21
54 -44 26 -44 -17 -1 -17 -1 1 -15 11 -8 16 -15 10 -15 -8 0 -195 132 -249
175 -19 15 -19 15 5 4 14 -7 40 -23 58 -37z m-937 -12 c4 0 5 -9 2 -20 -5 -20
-6 -20 -22 -3 -9 10 -22 26 -30 36 -12 15 -12 17 3 11 10 -4 16 -1 17 7 0 8 5
4 11 -8 6 -13 14 -23 19 -23z m229 -11 c0 -4 -7 -6 -15 -3 -8 4 -15 10 -15 15
0 4 7 6 15 3 8 -4 15 -10 15 -15z m5100 -39 c0 -5 -4 -11 -9 -14 -15 -10 -22
-69 -9 -78 10 -6 10 -8 1 -8 -7 0 -13 -4 -13 -10 0 -5 6 -7 14 -4 10 4 13 -4
11 -29 -3 -38 3 -52 25 -52 29 0 23 -36 -12 -66 -18 -15 -38 -28 -45 -29 -15
0 -35 35 -25 45 4 5 -1 5 -10 2 -22 -8 -61 31 -53 52 3 8 0 18 -6 22 -6 3 -13
31 -15 61 -1 30 -4 61 -6 69 -2 10 5 13 29 11 26 -3 32 0 27 12 -5 12 2 18 25
22 17 4 31 11 31 16 0 5 9 4 20 -2 11 -6 20 -15 20 -20z m-282 -6 c14 -15 14
-16 -3 -13 -10 2 -20 10 -23 17 -5 17 6 15 26 -4z m107 -14 c-3 -5 -10 -10
-16 -10 -5 0 -9 5 -9 10 0 6 7 10 16 10 8 0 12 -4 9 -10z m-151 -61 c-3 -5
-10 -7 -15 -3 -5 3 -7 10 -3 15 3 5 10 7 15 3 5 -3 7 -10 3 -15z m-4634 -44
c6 -8 9 -19 5 -25 -4 -6 -1 -19 6 -28 12 -15 12 -15 -7 1 -11 9 -25 17 -31 17
-5 0 -18 10 -29 22 l-19 21 27 -17 c17 -11 28 -13 33 -7 3 6 1 11 -4 11 -6 0
-11 5 -11 10 0 15 16 12 30 -5z m631 -15 c22 -12 37 -25 34 -30 -3 -5 0 -12 6
-16 8 -5 9 -3 4 6 -4 7 -4 11 1 9 61 -27 333 -201 387 -248 20 -18 37 -30 37
-27 0 4 14 0 30 -9 17 -9 30 -18 30 -21 0 -2 -15 3 -32 12 l-33 17 25 -27 c13
-15 64 -61 112 -103 48 -42 85 -80 82 -85 -3 -5 -2 -7 3 -6 7 3 63 -40 132
-100 l26 -23 -31 18 c-17 10 -51 33 -75 51 -24 18 -109 81 -188 140 -79 59
-158 117 -175 130 -17 13 -50 31 -73 42 -23 10 -57 35 -74 55 -17 19 -74 67
-126 106 -52 39 -92 74 -89 77 3 3 -11 16 -32 28 -46 29 -35 31 19 4z m-814
-45 c21 -5 24 -8 12 -16 -17 -11 -59 32 -58 59 0 10 4 7 10 -10 6 -16 20 -29
36 -33z m115 13 c-6 -6 -15 -8 -19 -4 -4 4 -1 11 7 16 19 12 27 3 12 -12z
m5213 -203 c9 -49 29 -128 45 -175 33 -99 32 -118 -1 -31 -13 33 -28 59 -33
58 -5 -1 -28 24 -50 56 -40 57 -40 58 -23 86 13 22 15 41 10 77 -5 37 -3 45 7
39 9 -6 11 4 7 46 l-6 54 14 -60 c7 -33 21 -100 30 -150z m-5959 137 c11 -6
13 -11 5 -16 -6 -4 -11 -17 -11 -29 0 -20 -1 -20 -14 -2 -9 13 -20 16 -37 12
-21 -5 -22 -5 -7 7 16 12 15 14 -5 35 l-22 23 21 -6 c15 -5 24 -1 29 11 6 16
8 16 15 -4 5 -12 16 -26 26 -31z m948 -113 c21 -13 25 -19 14 -19 -21 0 -22
-4 -7 -33 7 -15 3 -13 -14 7 -16 20 -29 27 -41 23 -12 -5 -15 -3 -9 6 4 6 8
17 9 22 4 37 6 40 11 27 3 -8 19 -22 37 -33z m136 -23 c0 -5 -6 -2 -13 9 -9
11 -19 15 -27 10 -10 -6 -12 -4 -7 7 3 9 0 22 -6 29 -7 8 3 1 21 -15 17 -17
32 -34 32 -40z m4738 21 c2 -10 1 -30 -3 -44 -4 -19 -11 -24 -25 -20 -24 6
-28 -21 -5 -29 8 -4 15 -12 15 -20 0 -21 -18 -17 -25 6 -4 13 -15 20 -31 20
-27 0 -31 12 -9 30 8 7 15 21 15 30 0 10 3 26 6 35 9 22 58 16 62 -8z m-6069
-264 c1 -96 -3 -153 -9 -153 -5 0 -11 8 -12 18 -1 9 -5 -28 -8 -83 l-6 -100
-2 108 c-2 89 0 107 13 107 13 0 15 20 13 133 l-2 132 -6 -115 c-7 -111 -7
-110 -7 50 1 91 3 170 6 175 10 16 19 -109 20 -272z m568 261 c-3 -3 -12 -4
-19 -1 -8 3 -5 6 6 6 11 1 17 -2 13 -5z m490 -44 c15 0 15 -1 -2 -13 -11 -9
-15 -19 -10 -27 5 -9 4 -11 -3 -6 -7 4 -12 16 -12 27 0 10 -6 19 -14 19 -7 0
-20 8 -27 18 -11 14 -11 15 1 5 19 -18 30 -16 31 5 0 13 2 12 9 -5 5 -13 17
-23 27 -23z m-655 -54 c19 -14 20 -16 4 -16 -14 0 -17 -5 -13 -21 6 -21 6 -21
-18 1 -13 12 -28 19 -34 16 -7 -5 -8 -1 -5 9 4 9 -2 25 -12 37 -19 21 -19 21
4 9 19 -10 23 -9 29 5 6 15 7 15 14 -3 4 -12 18 -28 31 -37z m491 -37 c18 -1
19 -2 4 -6 -15 -4 -17 -11 -12 -31 l6 -27 -21 23 c-12 12 -26 19 -32 16 -8 -5
-9 -1 -4 11 4 11 0 26 -11 39 -10 12 -11 15 -3 9 19 -18 30 -16 31 5 0 11 4 7
11 -10 6 -18 17 -28 31 -29z m5257 29 c0 -7 3 -22 6 -34 3 -13 -1 -28 -11 -38
-9 -9 -14 -23 -11 -31 6 -17 -22 -35 -53 -35 -28 0 -26 14 4 34 14 9 23 22 19
28 -4 7 -3 8 4 4 9 -5 12 6 12 38 0 34 4 46 15 46 8 0 15 -6 15 -12z m-57 -43
c-3 -8 -9 -15 -14 -15 -10 0 -12 24 -3 33 11 11 24 -3 17 -18z m-5853 -42 c14
-7 19 -13 13 -13 -7 0 -15 -11 -19 -25 -5 -22 -8 -23 -21 -9 -10 9 -23 12 -36
8 -20 -6 -20 -5 -8 10 11 13 11 20 3 28 -17 17 -15 28 4 21 10 -4 17 2 22 18
l6 24 6 -25 c3 -14 17 -30 30 -37z m1228 19 c13 -13 17 -24 11 -28 -6 -3 -8
-13 -5 -23 5 -14 4 -13 -8 2 -7 9 -20 17 -29 17 -11 0 -14 5 -11 15 4 8 1 21
-5 28 -19 23 22 14 47 -11z m2855 3 c-6 -17 15 -47 28 -39 12 7 74 -27 62 -35
-5 -3 -11 -25 -11 -49 -2 -36 2 -44 23 -54 17 -8 28 -8 37 0 15 12 88 12 88
-1 0 -4 4 -6 9 -3 5 3 14 -1 21 -9 10 -12 5 -17 -29 -31 l-41 -16 2 -62 c0
-33 -1 -68 -4 -76 -23 -58 -8 -91 31 -71 11 6 29 11 40 11 14 0 20 6 19 18 -1
9 0 40 0 68 2 47 5 53 32 64 38 16 72 -3 76 -43 2 -23 -1 -27 -22 -27 -23 0
-25 -3 -19 -30 6 -25 3 -32 -17 -39 -13 -6 -18 -10 -13 -11 65 -8 85 -8 85 1
0 6 4 8 9 5 5 -4 12 0 14 6 3 7 6 2 6 -11 1 -37 40 -109 62 -116 10 -4 22 -17
25 -31 4 -13 15 -29 25 -34 15 -8 17 -7 13 5 -4 8 -1 15 5 15 6 0 11 -15 11
-33 0 -18 5 -38 10 -43 7 -7 8 -19 1 -37 -10 -27 -18 -31 -56 -28 -13 1 -36
-14 -58 -39 -32 -34 -35 -40 -18 -40 11 0 23 -4 26 -10 9 -15 25 -12 25 4 0 9
7 12 18 9 10 -2 24 2 31 11 16 19 41 10 41 -16 0 -11 -4 -16 -11 -12 -7 4 -7
-1 1 -15 12 -23 37 -23 32 -1 -1 7 2 18 8 25 8 10 4 20 -17 40 l-28 27 33 -4
c30 -4 33 -2 28 16 -3 12 -1 28 4 36 7 11 10 11 10 2 0 -7 5 -10 10 -7 6 3 10
-4 10 -18 0 -17 11 -29 41 -45 22 -12 49 -22 60 -22 10 0 19 -5 19 -11 0 -5 5
-7 10 -4 6 3 10 -3 10 -14 0 -12 5 -22 10 -22 6 -1 16 -2 23 -3 6 0 13 -14 15
-29 6 -54 70 -49 92 8 12 32 18 35 52 35 34 0 40 4 37 27 0 4 8 10 18 14 19 6
59 -34 49 -50 -4 -5 6 -18 21 -29 23 -16 30 -17 40 -6 7 7 24 11 39 8 16 -3
23 -1 19 6 -3 5 0 7 8 4 8 -3 18 -1 22 5 8 13 -25 60 -43 61 -7 0 -26 7 -42
15 -35 18 -38 41 -13 88 9 18 17 37 18 42 1 6 7 23 13 38 7 16 10 33 7 38 -4
5 5 14 19 21 22 10 26 18 26 57 0 41 -4 48 -30 63 -31 18 -40 38 -17 38 7 0
22 -6 33 -14 13 -10 23 -11 32 -4 19 16 96 -58 116 -111 14 -40 14 -46 1 -61
-8 -9 -15 -20 -15 -24 0 -8 -24 -66 -40 -96 -4 -10 -2 -23 5 -33 12 -16 15
-15 38 12 14 16 28 27 32 23 5 -4 5 1 2 11 -5 13 -1 17 18 17 24 0 35 23 17
34 -4 2 -7 22 -7 43 0 31 4 38 20 38 14 0 19 -6 17 -20 -2 -13 5 -8 19 15 12
19 27 38 33 42 6 5 2 8 -11 8 -17 0 -23 6 -23 24 0 13 7 29 15 36 9 7 14 19
11 27 -3 7 -1 13 4 13 6 0 10 5 10 12 0 6 7 19 16 29 14 16 13 21 -12 66 -16
26 -32 50 -36 51 -15 7 -8 30 17 60 23 27 61 42 108 43 10 0 21 7 24 15 3 8
13 14 23 14 10 0 21 9 25 19 7 22 33 46 41 38 3 -3 8 -19 10 -35 4 -25 0 -34
-19 -47 -13 -8 -34 -14 -47 -13 -15 2 -25 -4 -31 -19 -8 -21 -6 -23 27 -23 21
0 33 -4 29 -10 -3 -5 -3 -10 2 -10 17 0 48 -67 48 -105 0 -38 1 -40 33 -40 36
-1 69 26 56 46 -4 7 -3 10 4 5 14 -8 52 32 52 55 0 27 55 83 75 75 13 -5 15
-1 10 17 -3 12 23 -34 57 -103 60 -118 63 -128 57 -175 -8 -60 6 -225 26 -313
8 -35 15 -69 14 -75 -1 -25 -18 31 -29 100 -10 57 -15 69 -25 60 -7 -7 -11
-14 -9 -16 2 -2 -11 -17 -29 -34 -18 -17 -24 -28 -15 -24 10 3 20 1 24 -5 8
-13 -16 -29 -31 -20 -5 4 -14 7 -20 7 -12 0 -61 -48 -67 -67 -4 -11 -8 -11
-21 1 -10 8 -17 9 -17 3 0 -6 5 -14 10 -17 6 -3 10 -11 10 -16 0 -6 -3 -8 -7
-6 -5 3 -8 -10 -8 -28 -1 -32 0 -32 33 -23 19 5 36 7 39 4 3 -3 -8 -8 -23 -12
-16 -4 -53 -18 -83 -30 -56 -25 -97 -31 -86 -14 3 6 3 10 -2 10 -4 0 -8 11 -8
24 0 13 3 22 7 20 4 -2 9 0 12 5 8 12 -26 49 -41 44 -6 -2 -14 1 -18 7 -3 6
-3 9 2 8 4 -2 9 0 11 5 6 19 0 27 -18 27 -11 0 -20 5 -20 10 0 6 -3 9 -7 9
-19 -3 -31 2 -37 16 -3 8 -2 14 2 12 10 -3 13 15 6 36 -4 12 3 28 20 46 18 18
24 33 19 49 -5 19 -12 22 -54 22 -27 0 -49 -2 -49 -4 0 -3 8 -12 17 -22 16
-16 16 -18 -6 -36 -29 -23 -20 -35 14 -20 14 7 28 12 31 12 9 0 -8 -44 -24
-59 -13 -13 -10 -19 22 -48 39 -36 43 -43 23 -43 -19 0 -50 -37 -42 -49 3 -6
1 -11 -4 -11 -6 0 -11 5 -11 10 0 13 -37 13 -45 0 -4 -6 -15 -10 -24 -8 -10 2
-26 -4 -36 -12 -16 -13 -18 -13 -13 0 3 8 0 29 -7 47 -8 17 -10 35 -7 39 4 4
-5 4 -21 2 -24 -5 -26 -3 -15 11 7 9 -1 4 -17 -10 -17 -15 -36 -24 -44 -21 -9
3 -11 0 -7 -7 4 -7 2 -19 -6 -28 -11 -14 -11 -16 1 -8 11 6 13 4 8 -9 -5 -14
-3 -15 13 -6 29 15 35 12 13 -8 -18 -15 -19 -19 -6 -31 11 -10 18 -10 26 -2
16 16 37 14 37 -3 0 -8 9 -18 20 -21 16 -5 20 -13 16 -35 -2 -16 -7 -34 -11
-39 -3 -6 0 -11 7 -11 10 0 10 -2 -1 -9 -21 -13 -6 -28 30 -29 17 0 28 2 25 5
-10 10 15 33 35 33 13 0 17 6 14 22 -5 22 9 38 33 38 10 0 10 -5 1 -21 -8 -15
-8 -19 0 -15 6 4 11 1 11 -8 0 -8 5 -18 12 -22 8 -5 9 -2 4 12 -4 10 -4 15 0
11 4 -4 12 -3 18 2 18 14 48 22 41 11 -3 -6 -13 -10 -20 -10 -8 0 -19 -9 -25
-20 -8 -15 -15 -18 -28 -11 -11 6 -24 6 -32 1 -12 -7 -11 -13 5 -32 11 -13 24
-26 30 -30 5 -4 2 -10 -8 -14 -22 -8 -22 -24 0 -24 13 0 14 -3 5 -12 -15 -15
3 -39 24 -31 10 3 14 -2 14 -18 l0 -24 20 25 20 25 -10 -29 c-6 -16 -12 -49
-14 -75 -3 -25 -9 -75 -15 -111 -9 -55 -8 -67 6 -82 11 -13 12 -18 3 -18 -9 0
-10 -3 -1 -14 9 -11 6 -27 -14 -71 -14 -32 -25 -67 -25 -78 0 -32 29 -57 67
-57 31 0 33 -2 33 -32 0 -18 7 -46 15 -62 8 -15 15 -36 15 -45 0 -9 7 -25 15
-35 10 -13 12 -32 8 -61 -7 -55 15 -79 83 -89 42 -6 148 -56 119 -56 -5 0 -23
9 -40 20 -16 11 -52 23 -78 26 -48 7 -97 35 -97 58 0 6 -9 12 -20 12 -10 0
-17 -2 -15 -5 3 -2 -17 -15 -44 -28 -46 -23 -49 -27 -55 -75 -8 -56 6 -87 30
-67 7 6 22 8 33 4 10 -3 22 -1 25 4 4 6 18 6 35 1 16 -4 32 -6 35 -2 3 3 6 2
6 -2 0 -4 -13 -12 -30 -17 -16 -6 -32 -19 -35 -29 -4 -11 -12 -17 -21 -13 -7
3 -14 0 -14 -6 0 -6 5 -11 11 -11 5 0 8 -4 5 -9 -4 -5 -1 -11 6 -13 18 -6 0
-27 -37 -42 -18 -8 -39 -24 -45 -36 -9 -17 -14 -19 -26 -9 -11 9 -14 8 -15 -7
-1 -11 -1 -23 0 -29 1 -5 -9 2 -21 16 -23 25 -65 49 -53 29 3 -6 1 -10 -4 -10
-10 0 -13 7 -10 26 0 4 -5 11 -13 15 -9 6 -9 9 -1 9 6 0 15 -4 18 -10 10 -17
25 -11 18 7 -4 11 -3 14 5 9 8 -5 10 -2 6 8 -7 18 -24 22 -24 6 0 -5 -7 -10
-15 -10 -8 0 -15 8 -15 19 0 10 -7 24 -15 31 -9 7 -13 20 -11 27 3 8 -3 33
-14 55 -11 23 -19 42 -17 43 1 1 11 7 22 14 11 7 13 10 5 8 -8 -2 -25 0 -37 4
-14 5 -23 5 -23 -1 0 -6 5 -10 10 -10 16 0 12 -14 -10 -38 -31 -33 -25 -49 19
-42 9 1 12 -5 8 -20 -3 -12 -3 -19 0 -16 7 7 33 -13 33 -25 0 -5 -5 -9 -11 -9
-5 0 -8 4 -5 9 3 5 -5 11 -18 13 -22 4 -23 3 -13 -15 7 -12 23 -31 36 -44 22
-21 21 -28 -2 -24 -4 1 -4 -7 1 -16 5 -10 8 -33 7 -50 -2 -21 1 -30 8 -26 6 3
7 1 3 -6 -4 -6 0 -23 8 -36 20 -31 13 -32 -14 -3 -21 23 -27 10 -10 -23 7 -12
7 -19 1 -19 -5 0 -13 9 -16 20 -6 18 -17 25 -29 18 -2 -2 -13 8 -25 22 -19 24
-20 24 -21 4 0 -11 -5 -25 -11 -31 -8 -8 -5 -13 10 -18 26 -8 55 -60 48 -86
-3 -11 0 -19 6 -19 6 0 0 -11 -13 -25 -24 -25 -54 -32 -78 -16 -10 6 -7 12 12
24 48 32 10 115 -61 133 -14 4 -23 14 -23 25 0 13 -7 19 -24 19 -14 0 -28 5
-31 10 -3 6 1 10 9 10 10 0 13 6 9 18 -6 15 -4 15 15 -2 12 -11 25 -17 28 -14
8 9 -18 47 -36 53 -20 7 -40 52 -33 73 14 36 46 41 100 15 43 -20 73 -66 73
-111 0 -20 4 -31 10 -27 6 3 10 15 10 27 0 14 5 18 15 14 13 -4 13 -2 5 14
-10 19 -9 54 3 66 15 15 -15 44 -46 44 -18 0 -40 7 -51 15 -11 8 -30 12 -46 8
-15 -3 -31 0 -34 6 -11 17 -29 13 -22 -4 7 -20 -7 -19 -35 4 -20 16 -21 21
-10 35 7 9 18 13 25 9 7 -4 7 -1 -1 7 -30 32 -149 2 -222 -57 -26 -21 -36 -26
-24 -12 l22 24 -35 40 c-19 22 -34 43 -34 46 0 4 -9 9 -21 12 -16 4 -19 10
-14 28 5 13 3 19 -3 15 -5 -3 -12 0 -15 8 -4 11 1 13 18 10 19 -3 23 -1 19 11
-9 22 2 18 30 -10 14 -14 32 -25 40 -25 8 0 22 -10 30 -22 14 -19 16 -20 16
-5 0 11 5 15 11 11 6 -3 15 -1 19 6 8 12 60 24 60 14 0 -3 -5 -15 -11 -26 -8
-15 -8 -19 0 -14 6 4 11 2 11 -4 0 -6 5 -8 10 -5 6 4 7 11 4 17 -4 6 1 6 14
-1 12 -6 24 -16 27 -21 3 -6 12 -10 18 -10 7 0 6 4 -3 10 -13 8 -13 10 2 10
25 0 27 23 4 35 -11 6 -22 19 -24 30 -2 11 -14 30 -25 43 -17 19 -18 22 -4 16
9 -3 17 -11 17 -17 0 -6 3 -8 6 -4 7 7 34 -17 34 -30 0 -5 9 -9 19 -10 13 -1
18 3 14 12 -2 8 -10 13 -16 12 -7 -1 -12 7 -13 18 -2 37 -4 44 -20 59 -14 14
-18 14 -38 1 -22 -15 -23 -14 -21 10 4 28 31 60 39 46 4 -5 0 -11 -6 -14 -8
-2 -1 -10 15 -17 15 -7 27 -17 27 -22 0 -5 6 -6 13 -1 6 4 19 8 27 8 8 0 14 6
12 13 -1 8 2 11 8 7 6 -3 8 -11 5 -16 -6 -8 8 -13 28 -10 4 0 7 -3 7 -9 0 -5
-8 -10 -17 -10 -16 0 -16 -1 -1 -16 17 -17 43 -10 32 8 -4 7 -2 8 5 4 6 -4 17
-3 24 2 17 14 50 18 66 8 11 -7 13 -4 9 12 -4 12 -2 20 3 16 5 -3 9 0 9 6 0
11 -49 3 -65 -11 -15 -14 -25 -10 -18 8 5 11 3 14 -6 8 -11 -6 -11 -3 -1 16 7
13 9 21 5 17 -4 -4 -14 4 -22 18 -15 31 -17 48 -3 39 6 -3 10 1 10 10 0 10 5
13 13 9 9 -6 9 -5 0 7 -8 10 -27 15 -53 14 -22 -1 -45 4 -50 11 -8 9 -18 5
-40 -16 -24 -23 -36 -27 -58 -21 -16 4 -28 16 -30 27 -3 16 -1 17 8 4 10 -13
11 -12 6 3 -7 21 3 22 18 1 17 -22 43 -8 48 27 3 16 1 29 -4 29 -4 0 -8 -10
-8 -23 0 -32 -11 -40 -26 -19 -11 14 -16 15 -34 4 -11 -7 -25 -10 -30 -7 -6 4
-10 -4 -10 -17 0 -13 -10 -29 -21 -37 -20 -12 -21 -11 -17 12 3 17 1 24 -7 20
-7 -2 -22 7 -32 21 -29 36 -69 40 -123 13 -25 -13 -44 -29 -42 -36 1 -7 -2
-19 -9 -27 -6 -8 -9 -20 -6 -27 3 -7 -3 -18 -13 -25 -14 -9 -17 -8 -16 6 0 10
-7 18 -19 20 -11 1 -26 15 -32 29 -17 35 -16 54 1 47 16 -6 58 34 50 48 -3 4
0 8 5 8 6 0 11 9 11 21 0 11 -4 18 -9 15 -5 -3 -8 2 -7 12 0 10 -6 17 -16 17
-9 0 -20 4 -25 9 -4 5 -3 6 4 2 6 -3 14 -2 18 4 3 6 -1 13 -10 17 -10 3 -21 0
-26 -8 -6 -10 -9 -11 -9 -1 0 12 -53 -10 -109 -47 -36 -23 -62 -24 -33 -1 12
10 27 20 32 22 6 2 11 17 11 33 0 47 -4 65 -13 59 -4 -3 -8 -1 -8 4 0 5 -13
12 -29 14 -17 2 -28 2 -26 -2 8 -13 -20 -85 -32 -84 -7 1 -17 2 -22 3 -5 0
-17 8 -25 17 -15 14 -17 13 -25 -8 -6 -13 -10 -17 -10 -10 -1 7 6 26 15 43 16
32 12 64 -10 72 -23 9 -86 -15 -88 -32 -3 -33 4 -66 15 -73 7 -4 12 -13 13
-20 0 -7 2 -24 2 -37 2 -19 5 -21 16 -11 8 6 16 21 18 33 2 16 16 -4 51 -71
26 -52 47 -98 47 -102 0 -11 -79 -3 -95 10 -6 5 -15 6 -20 2 -4 -4 -5 11 -2
32 6 41 -7 81 -24 71 -5 -4 -12 1 -15 9 -3 9 -10 16 -16 16 -11 0 -38 25 -38
36 0 13 -53 64 -67 64 -7 0 -13 6 -14 13 -8 117 -1 139 40 117 12 -6 21 -8 21
-5 0 17 3 21 26 33 20 10 23 18 18 40 -4 15 -13 33 -22 40 -15 11 -10 17 12
13 5 -1 6 6 2 15 -4 9 -4 25 0 36 4 15 9 17 20 7 24 -20 17 13 -11 52 -35 47
-59 65 -140 105 -38 19 -57 31 -41 28 20 -5 27 -3 22 4 -7 11 13 10 45 -3 9
-3 21 1 29 10 8 10 9 15 1 15 -6 0 -11 -4 -11 -10 0 -5 -4 -10 -10 -10 -15 0
-12 17 5 32 39 33 46 41 41 54 -3 8 -2 13 2 11 4 -1 8 2 9 7 2 9 67 56 78 56
3 0 4 -4 1 -9 -9 -15 28 -7 40 8 6 8 9 23 6 34 -3 14 -1 18 6 13 8 -5 12 1 12
15 0 21 -1 22 -20 4 -11 -10 -17 -21 -15 -26 3 -4 1 -10 -4 -13 -5 -4 -18 5
-29 19 -11 14 -25 25 -32 25 -6 0 -8 5 -4 12 4 7 3 8 -5 4 -7 -5 -22 3 -37 17
-23 23 -23 25 -5 20 12 -3 21 -9 21 -14 0 -5 7 -9 15 -9 8 0 15 7 15 15 0 9
-6 12 -15 9 -9 -4 -18 1 -21 11 -5 13 -9 14 -15 3 -7 -10 -9 -10 -9 2 0 13 -2
13 -9 1 -6 -9 -6 -22 0 -32 14 -27 -5 -31 -35 -8 -15 12 -23 26 -19 32 4 7 -1
6 -10 -2 -20 -16 -33 -9 -21 11 5 7 9 22 9 34 1 16 -5 20 -27 19 -18 -1 -28 3
-28 12 0 7 6 13 13 13 7 0 18 9 25 20 7 11 19 20 27 20 15 0 22 29 8 31 -5 0
-16 2 -26 4 -10 2 -28 -7 -42 -21 -13 -13 -25 -19 -27 -13 -2 6 -12 7 -27 1
-19 -7 -29 -3 -48 16 -17 17 -31 22 -47 18 -18 -4 -28 0 -42 22 -10 15 -18 29
-17 32 3 10 -41 4 -62 -7 -13 -8 -25 -8 -39 -1 -13 7 -21 6 -27 -3 -5 -8 -9
-9 -9 -4 0 6 4 16 9 24 10 15 -8 43 -22 34 -4 -2 -7 -1 -6 4 3 20 -2 34 -11
28 -5 -3 -10 -1 -10 4 0 6 6 11 13 11 19 0 36 20 30 36 -3 9 -11 10 -30 3 -17
-6 -30 -6 -39 2 -10 8 -17 7 -29 -5 -24 -24 -27 -20 -11 13 9 16 12 31 9 35
-19 19 -9 57 23 88 18 18 34 39 34 47 0 10 10 12 39 7 22 -3 41 -3 44 2 2 4 2
1 1 -5 -2 -7 3 -13 11 -13 7 0 20 -6 27 -13 7 -7 26 -21 43 -31 17 -11 24 -21
17 -24 -6 -2 -12 -15 -12 -28 0 -13 -6 -24 -12 -25 -52 -3 -82 -24 -58 -39 22
-14 26 -13 56 15 26 24 28 24 46 9 10 -10 20 -15 22 -13 1 2 8 13 15 24 7 11
10 13 8 5 -5 -20 24 -40 43 -30 9 5 23 5 31 -1 17 -11 39 -12 38 -1 0 4 -13
17 -30 30 -27 22 -30 22 -45 7 -15 -15 -17 -14 -30 2 -7 10 -14 22 -14 26 0 5
-7 15 -15 23 -19 20 -20 84 -1 84 33 0 25 68 -10 88 -14 8 -15 14 -7 24 15 20
24 66 14 73 -5 3 -9 19 -9 36 1 22 7 33 22 39 26 10 37 4 29 -15z m-3630 -5
c3 -11 16 -24 29 -29 19 -8 20 -10 4 -10 -23 -1 -56 26 -56 46 0 20 17 15 23
-7z m5312 10 c-3 -5 -13 -10 -21 -10 -8 0 -12 5 -9 10 3 6 13 10 21 10 8 0 12
-4 9 -10z m-3590 -55 c11 -9 -2 -5 -30 10 -27 15 -54 32 -60 37 -15 16 67 -28
90 -47z m-1095 28 c0 -6 10 -19 22 -27 12 -9 17 -16 10 -16 -6 0 -12 -7 -12
-17 0 -14 -2 -15 -17 -1 -10 9 -25 13 -33 10 -12 -4 -13 -2 -3 10 10 11 10 18
-1 34 -12 17 -11 19 10 19 13 0 24 -5 24 -12z m4741 7 c-7 -4 -12 -11 -11 -16
3 -17 -18 -14 -22 3 -4 14 1 18 20 20 15 0 20 -2 13 -7z m-1392 -12 c-3 -27 2
-37 21 -43 11 -3 20 -15 20 -26 0 -26 -44 -25 -71 2 -18 18 -19 23 -6 37 8 9
12 23 10 30 -3 6 3 12 12 12 9 0 15 -6 14 -12z m1541 8 c0 -2 -7 -7 -16 -10
-8 -3 -12 -2 -9 4 6 10 25 14 25 6z m-5005 -74 c16 -8 16 -9 0 -15 -12 -5 -14
-13 -9 -29 5 -16 -1 -13 -23 13 -15 19 -35 43 -43 54 -14 19 -14 19 3 5 17
-12 20 -12 30 5 10 18 10 18 18 -2 4 -12 15 -26 24 -31z m1340 -37 c17 -12 40
-25 52 -29 27 -8 131 -120 156 -167 17 -33 17 -33 -15 6 -64 77 -145 150 -221
199 -42 27 -77 51 -77 53 0 6 65 -33 105 -62z m-1993 -12 c20 -6 20 -7 3 -19
-11 -8 -15 -20 -11 -31 5 -14 1 -13 -13 5 -11 12 -26 22 -35 22 -10 0 -13 6
-10 15 4 8 1 22 -5 29 -10 12 -8 13 8 9 14 -3 21 0 22 8 0 8 4 3 10 -9 5 -13
19 -26 31 -29z m5435 41 c-3 -3 -12 -4 -19 -1 -8 3 -5 6 6 6 11 1 17 -2 13 -5z
m-4322 -54 c9 -14 -9 -12 -23 2 -8 8 -12 8 -12 1 0 -13 28 -25 41 -17 8 4 109
-53 109 -63 0 -2 -79 26 -142 52 -10 4 -18 18 -18 31 0 21 3 23 19 14 11 -5
23 -15 26 -20z m-671 -16 c9 -13 22 -22 29 -20 6 1 9 1 5 -1 -5 -3 -5 -17 -2
-31 l6 -27 -16 23 c-10 12 -26 22 -38 22 -16 0 -18 3 -10 13 9 10 7 19 -4 35
-13 19 -13 21 0 16 8 -3 22 -16 30 -30z m1220 -11 c10 -25 3 -23 -17 3 -13 18
-14 22 -3 18 8 -3 17 -13 20 -21z m43 -13 c3 -11 9 -20 14 -20 5 0 6 7 2 16
-5 14 -2 14 28 -1 61 -32 212 -136 305 -211 87 -69 163 -153 248 -273 l38 -54
-43 35 c-60 48 -246 170 -318 209 -34 17 -59 34 -57 38 2 3 -3 15 -11 26 -15
20 -15 20 -10 -2 3 -13 4 -23 3 -23 -2 0 -17 21 -34 48 -17 26 -67 85 -111
132 -45 46 -81 88 -81 92 0 17 22 7 27 -12z m-2197 -34 c-1 -20 -2 -20 -15 4
-19 33 -19 46 0 30 8 -7 15 -22 15 -34z m108 10 c28 -10 50 -21 48 -24 -2 -4
1 -16 5 -27 9 -18 9 -18 5 2 -5 28 2 33 30 23 13 -5 28 -29 43 -69 12 -34 27
-61 32 -61 6 0 8 -8 5 -18 -4 -11 1 -35 9 -55 8 -21 12 -37 8 -37 -4 0 -53 16
-109 36 -107 38 -114 44 -114 104 0 14 -7 35 -15 47 -10 14 -13 32 -9 48 4 15
1 32 -7 42 -12 14 -12 16 1 11 8 -3 39 -13 68 -22z m1315 -43 c11 -13 15 -23
9 -23 -7 0 -12 -8 -12 -17 -1 -17 -1 -17 -11 0 -5 9 -19 17 -29 17 -13 0 -18
5 -14 15 4 8 0 23 -7 32 -12 14 -11 15 9 9 15 -5 22 -3 23 6 0 9 2 8 6 -2 3
-8 15 -25 26 -37z m-135 -43 c15 -1 15 -2 -2 -15 -10 -8 -15 -19 -11 -27 4 -7
-2 -3 -12 10 -13 16 -22 20 -31 12 -9 -7 -9 -7 -2 2 7 8 3 19 -12 35 -12 13
-16 23 -10 23 6 0 14 -5 18 -11 4 -8 10 -5 17 7 10 17 11 16 20 -9 5 -15 16
-27 25 -27z m-1348 31 c0 -6 -4 -13 -10 -16 -5 -3 -10 1 -10 9 0 9 5 16 10 16
6 0 10 -4 10 -9z m349 -26 c11 -19 17 -35 12 -35 -5 0 -21 16 -35 35 -19 25
-23 35 -12 35 7 0 23 -16 35 -35z m5423 2 c14 -18 15 -23 3 -25 -10 -2 -13
-14 -9 -38 2 -20 0 -43 -5 -52 -11 -19 -42 -26 -35 -7 4 10 -1 12 -15 8 -12
-3 -21 -11 -21 -18 0 -24 -27 -24 -38 0 -6 13 -20 26 -30 30 -26 8 -38 37 -14
33 12 -2 16 3 14 15 -4 21 16 49 29 41 5 -3 9 1 9 9 0 19 40 37 70 31 14 -3
33 -15 42 -27z m-5333 -49 c60 -65 68 -80 73 -130 1 -9 4 -15 6 -13 3 2 13 -6
23 -18 23 -27 24 -16 3 25 -9 16 -11 27 -5 23 6 -3 21 -24 32 -47 19 -37 19
-39 2 -34 -10 3 -29 8 -43 11 -16 4 -31 18 -40 38 -7 17 -15 26 -18 19 -2 -7
2 -19 8 -27 15 -18 14 -18 -48 -5 -46 10 -50 14 -70 61 -25 60 -7 61 23 1 11
-22 24 -41 28 -42 5 0 5 6 1 13 -4 6 2 4 13 -5 34 -30 34 -20 3 41 -36 73 -70
161 -62 161 4 0 36 -32 71 -72z m3368 16 c-2 -13 0 -24 4 -24 5 0 9 4 9 10 0
5 8 6 17 3 22 -8 53 -40 53 -54 0 -5 4 -8 9 -5 5 4 7 -4 3 -16 -4 -17 -2 -20
11 -15 10 4 17 2 17 -4 0 -6 4 -8 10 -4 5 3 6 13 3 23 -7 18 -5 17 17 -12 10
-13 10 -17 3 -12 -17 9 -17 -16 -1 -32 10 -9 8 -16 -5 -29 -13 -13 -17 -14
-17 -3 0 7 -3 10 -7 7 -3 -4 -12 -2 -19 4 -11 9 -15 7 -21 -7 -9 -25 -33 -49
-33 -34 0 6 -4 8 -10 5 -5 -3 -10 -1 -10 5 0 6 -4 9 -9 6 -5 -3 -11 4 -14 15
-4 13 -1 19 6 16 7 -3 12 5 12 19 0 15 -5 23 -15 21 -9 -1 -15 6 -15 18 0 16
-6 20 -30 19 -17 -1 -41 -4 -55 -8 -19 -5 -31 -1 -48 15 -22 20 -22 22 -6 40
9 10 21 16 27 12 6 -4 8 0 4 10 -6 16 19 45 30 34 3 -4 15 0 26 8 29 20 61 2
54 -31z m-3807 -18 c0 -25 -4 -48 -10 -51 -6 -4 -10 13 -10 44 0 28 5 51 10
51 6 0 10 -20 10 -44z m595 -6 c15 -15 27 -32 27 -37 1 -17 11 -33 21 -33 5 0
2 10 -9 21 -10 12 -14 20 -9 17 6 -2 34 -15 63 -28 39 -18 52 -29 52 -45 0
-12 12 -37 26 -56 14 -19 41 -64 61 -101 19 -38 39 -68 44 -68 13 0 11 13 -5
35 -7 11 -25 43 -40 70 l-27 50 28 -32 c15 -17 36 -42 46 -55 15 -19 14 -16
-3 19 -11 23 -24 44 -29 48 -6 3 -24 26 -41 51 -29 43 -29 45 -8 39 31 -10 32
-11 69 -85 18 -36 48 -89 66 -119 19 -29 32 -55 29 -58 -13 -13 -178 62 -225
102 -28 24 -54 45 -59 47 -4 1 -21 34 -38 73 -16 38 -45 95 -65 126 -29 44
-33 56 -19 52 10 -3 30 -17 45 -33z m-492 -19 c10 -17 15 -31 10 -31 -4 0 -16
15 -27 33 -17 29 -19 30 -27 12 -7 -17 -7 -16 -6 7 2 33 24 24 50 -21z m-70
-1 c3 -13 0 -20 -9 -20 -8 0 -14 10 -14 26 0 28 15 25 23 -6z m1144 -19 c17
-10 17 -12 1 -21 -10 -6 -15 -18 -12 -28 4 -12 0 -11 -14 6 -11 12 -25 22 -32
22 -6 0 -8 5 -5 11 4 5 -1 20 -12 32 -18 21 -18 21 1 7 17 -13 20 -13 30 2 10
17 11 16 18 -1 4 -11 15 -24 25 -30z m2128 19 c3 -11 11 -20 17 -20 6 0 6 -6
-2 -15 -7 -8 -10 -15 -7 -15 3 0 13 -3 23 -7 13 -5 15 -3 9 8 -5 8 0 6 12 -4
13 -12 23 -14 27 -8 8 12 68 2 78 -13 4 -6 2 -14 -5 -18 -7 -4 -8 -8 -4 -8 4
0 3 -9 -3 -20 -13 -25 -39 -15 -34 13 2 12 2 16 -2 10 -3 -7 -11 -13 -17 -13
-6 0 -18 -7 -28 -16 -16 -15 -20 -14 -49 16 -17 17 -27 36 -24 42 5 7 2 8 -5
4 -7 -5 -20 -1 -30 8 -10 9 -25 16 -32 14 -25 -5 -15 22 16 42 38 25 52 25 60
0z m249 1 c3 -4 -3 -16 -14 -26 -11 -10 -20 -13 -20 -7 0 6 5 14 11 18 8 4 7
9 -2 15 -11 7 -10 9 3 9 9 0 19 -4 22 -9z m38 -36 c6 -7 14 -3 24 9 15 21 18
18 8 -8 -7 -19 -23 -20 -47 -2 -12 9 -15 20 -10 32 7 18 8 18 11 -1 2 -11 8
-24 14 -30z m-1199 3 c10 -16 14 -28 9 -28 -8 0 -32 43 -32 57 0 7 1 6 23 -29z
m-677 -32 c99 -45 114 -57 114 -90 0 -11 20 -46 45 -77 25 -32 45 -61 45 -66
0 -11 53 -63 63 -63 4 0 3 10 -4 23 -7 14 2 8 25 -15 35 -38 54 -50 40 -25
-36 60 -159 237 -166 237 -5 0 -4 -9 2 -20 17 -31 -4 -23 -23 9 -9 16 -17 31
-17 34 0 2 30 -7 68 -20 57 -20 71 -30 90 -63 12 -22 32 -45 45 -51 21 -11 21
-10 -4 17 -42 48 -52 64 -41 64 6 0 19 -13 28 -30 20 -33 46 -49 38 -22 -3 9
12 -3 33 -28 20 -25 56 -63 78 -85 72 -72 119 -135 101 -135 -17 0 -239 75
-259 87 -7 4 -17 8 -24 9 -33 5 -188 71 -263 112 -47 26 -93 50 -102 54 -10 4
-18 13 -18 20 0 9 3 9 12 0 17 -17 29 -15 22 3 -4 8 -12 15 -20 15 -11 0 -14
18 -14 75 0 41 2 75 4 75 3 0 48 -20 102 -44z m-1746 -23 c-2 -68 2 -76 10
-18 6 44 7 40 8 -37 1 -48 -2 -89 -7 -92 -5 -4 -7 11 -4 34 4 26 2 40 -6 40
-8 0 -11 -33 -9 -107 1 -86 3 -98 8 -58 6 44 7 39 7 -35 1 -56 -2 -76 -7 -60
-8 24 -8 24 -9 -7 -1 -17 -6 -35 -12 -39 -11 -6 -6 246 7 374 7 65 16 68 14 5z
m4958 10 c2 -12 0 -29 -5 -37 -7 -12 -12 -11 -31 4 -19 16 -21 23 -12 40 14
27 44 22 48 -7z m-118 -12 c0 -18 -18 -21 -30 -6 -10 13 -9 15 9 15 11 0 21
-4 21 -9z m-3327 -63 c20 -16 20 -18 3 -18 -13 0 -17 -5 -13 -20 6 -23 -8 -27
-17 -5 -3 8 -15 15 -27 15 -18 0 -19 2 -9 15 10 13 9 19 -6 37 -19 21 -19 21
3 10 17 -10 22 -9 29 6 6 15 8 15 11 -3 3 -11 15 -28 26 -37z m1621 -193 c33
-33 49 -47 36 -32 -19 21 -20 27 -7 21 9 -3 28 1 41 9 26 17 56 13 113 -16 37
-20 96 -18 88 1 -3 8 0 12 7 9 8 -2 12 -19 10 -43 -2 -23 3 -47 12 -59 14 -19
15 -19 50 -2 22 10 36 24 36 35 0 22 55 44 88 36 29 -8 28 -20 -2 -28 -20 -5
-23 -12 -22 -45 0 -21 4 -37 9 -34 6 4 9 -5 6 -23 -2 -18 28 -20 65 -5 32 14
42 24 46 47 7 37 29 37 50 -1 23 -41 4 -95 -36 -109 -49 -15 -86 -47 -81 -67
8 -31 -10 -31 -32 -2 -20 27 -20 27 -21 5 0 -18 -4 -22 -25 -18 -27 5 -59 -19
-49 -36 11 -17 -16 1 -56 38 -59 55 -87 74 -128 88 -48 17 -113 57 -142 88
-12 13 -49 64 -83 113 -33 50 -87 124 -120 165 -89 112 -88 115 4 15 46 -49
111 -117 143 -150z m90 223 c27 -28 53 -74 49 -85 -6 -16 9 -17 25 -1 7 7 12
8 12 4 0 -4 -14 -22 -32 -38 -37 -34 -65 -28 -60 13 4 34 -18 81 -34 75 -19
-7 -18 9 2 28 19 19 22 20 38 4z m1634 -27 c3 -8 -1 -12 -9 -9 -7 2 -15 10
-17 17 -3 8 1 12 9 9 7 -2 15 -10 17 -17z m25 -6 c-3 -9 -8 -14 -10 -11 -3 3
-2 9 2 15 9 16 15 13 8 -4z m-4223 -20 c11 -13 10 -14 -4 -9 -9 3 -16 10 -16
15 0 13 6 11 20 -6z m563 -26 c12 -7 41 -29 63 -50 23 -20 57 -45 75 -55 19
-9 41 -26 49 -38 8 -12 31 -39 52 -61 21 -22 68 -80 105 -129 38 -49 74 -92
81 -94 10 -3 9 3 -3 22 -10 14 -13 26 -7 26 6 0 13 -6 16 -12 3 -7 2 0 -1 16
-6 32 -83 170 -89 163 -3 -2 0 -17 6 -32 16 -43 5 -41 -44 6 -49 47 -57 62
-28 52 9 -3 14 -2 9 2 -4 5 -15 9 -25 10 -16 1 -84 45 -71 45 9 0 167 -69 269
-117 58 -28 150 -69 205 -93 122 -53 123 -53 131 -99 4 -20 15 -48 25 -63 11
-14 19 -30 19 -35 0 -6 10 -18 21 -29 12 -10 35 -38 51 -62 l29 -42 -48 19
c-50 20 -199 85 -293 129 -246 114 -298 141 -321 170 -13 17 -48 44 -77 60
-28 16 -49 32 -45 35 3 4 -4 18 -16 31 -12 13 -52 68 -89 122 -37 54 -72 99
-79 99 -6 0 -15 3 -19 8 -12 11 25 8 49 -4z m1961 -4 c3 -8 1 -15 -4 -15 -6 0
-10 7 -10 15 0 8 2 15 4 15 2 0 6 -7 10 -15z m-54 -5 c0 -5 -2 -10 -4 -10 -3
0 -8 5 -11 10 -3 6 -1 10 4 10 6 0 11 -4 11 -10z m-3096 -54 c-3 -8 0 -25 7
-37 14 -27 21 -121 8 -113 -5 3 -9 -1 -9 -8 0 -9 -3 -9 -10 2 -13 20 -13 33 0
25 5 -3 8 0 6 7 -10 33 -15 138 -6 138 5 0 7 -6 4 -14z m46 -43 c0 -22 -8 -14
-19 20 -10 29 -9 30 4 13 8 -11 15 -26 15 -33z m20 37 c0 -5 -2 -10 -4 -10 -3
0 -8 5 -11 10 -3 6 -1 10 4 10 6 0 11 -4 11 -10z m98 -37 c33 -38 33 -38 29
-10 -2 15 -1 27 4 27 4 0 47 -14 94 -31 94 -34 90 -30 119 -134 10 -33 26 -77
36 -97 l18 -38 -26 6 c-15 4 -65 20 -112 37 -47 17 -115 37 -151 46 -67 16
-69 18 -68 49 0 12 3 10 10 -7 13 -34 22 -20 9 15 l-10 29 20 -25 c11 -14 20
-28 20 -31 0 -4 7 -10 16 -13 13 -5 14 -4 5 7 -6 8 -9 29 -7 48 3 25 -2 41
-18 59 -12 14 -29 42 -39 63 -16 35 -16 37 1 37 9 0 32 -17 50 -37z m4242 2
l25 -14 -30 4 c-16 2 -34 4 -38 4 -10 1 1 21 11 21 4 -1 18 -7 32 -15z m-802
-60 c-3 -3 -9 2 -12 12 -6 14 -5 15 5 6 7 -7 10 -15 7 -18z m-3173 -3 c14 -10
35 -72 24 -72 -5 0 -17 18 -28 40 -18 38 -17 48 4 32z m2200 -18 c85 -38 362
-210 406 -251 48 -45 107 -138 179 -282 l42 -85 -61 53 c-34 29 -121 93 -194
142 -72 49 -132 93 -132 97 -1 4 -9 23 -20 42 -16 29 -20 32 -23 16 -3 -12 5
-26 19 -37 13 -10 20 -19 15 -19 -16 0 -76 41 -76 53 -1 15 -39 66 -40 52 0
-6 7 -21 16 -33 8 -12 10 -22 5 -22 -11 0 -30 33 -71 122 -12 26 -30 54 -41
64 -10 9 -19 24 -19 33 0 8 -15 31 -32 50 -18 18 -28 32 -23 29 6 -3 28 -14
50 -24z m-2145 -28 c-1 -20 -2 -20 -15 4 -19 33 -19 46 0 30 8 -7 15 -22 15
-34z m122 4 c66 -19 77 -26 83 -49 7 -28 32 -61 47 -61 5 0 -1 18 -12 40 -11
22 -19 40 -16 40 20 0 89 -40 124 -71 23 -22 53 -45 67 -51 14 -6 25 -17 25
-24 0 -7 4 -16 10 -19 6 -4 7 1 3 11 -5 14 -3 16 13 9 10 -4 53 -20 94 -35 74
-27 75 -28 109 -91 18 -35 53 -97 77 -137 49 -84 54 -82 -85 -25 -117 48 -156
69 -199 107 -60 54 -149 91 -388 160 -24 7 -49 47 -42 68 3 8 13 -2 23 -24 11
-21 22 -38 27 -38 16 0 7 38 -17 74 -14 20 -25 46 -25 57 0 11 -7 36 -15 55
-13 33 -13 35 3 30 9 -2 52 -14 94 -26z m2004 -18 c-8 -7 -25 8 -37 31 -11 21
-10 21 15 -2 14 -14 24 -26 22 -29z m-2576 -42 c0 -4 -9 -6 -21 -3 -15 4 -17
8 -8 14 14 8 29 3 29 -11z m4465 0 c-3 -5 -2 -10 4 -10 5 0 11 6 14 13 2 6 8
9 12 5 10 -10 -23 -48 -41 -48 -7 0 -11 6 -10 13 2 15 15 37 22 37 3 0 2 -4
-1 -10z m1290 -9 c3 -6 -4 -15 -15 -21 -20 -11 -21 -10 -10 9 12 23 16 25 25
12z m-5848 -53 c-2 -13 -4 -5 -4 17 -1 22 1 32 4 23 2 -10 2 -28 0 -40z m6503
43 c0 11 2 11 10 -1 13 -21 3 -27 -65 -33 -49 -5 -54 -4 -30 5 17 5 38 10 48
9 13 0 17 5 13 16 -5 13 -4 14 9 3 12 -10 15 -10 15 1z m-5935 -103 c6 -5 3
-8 -7 -8 -10 0 -24 13 -33 30 -23 44 -18 60 7 20 12 -19 27 -38 33 -42z m5465
2 c0 -5 -2 -10 -4 -10 -3 0 -8 5 -11 10 -3 6 -1 10 4 10 6 0 11 -4 11 -10z
m-6013 -32 c-3 -8 -6 -5 -6 6 -1 11 2 17 5 13 3 -3 4 -12 1 -19z m2176 -37
c75 -30 137 -59 138 -65 3 -51 52 -138 108 -190 16 -16 28 -33 25 -37 -3 -5 1
-6 9 -4 7 3 22 -3 32 -15 10 -11 14 -20 9 -20 -5 0 -79 26 -164 58 l-155 58 0
34 c-1 19 -11 55 -24 79 -12 24 -25 56 -27 70 -3 14 -12 33 -21 41 -14 13 -14
13 -4 -7 19 -37 12 -48 -15 -22 -30 28 -72 84 -58 78 5 -2 71 -28 147 -58z
m3717 49 c0 -5 -4 -10 -10 -10 -5 0 -10 5 -10 10 0 6 5 10 10 10 6 0 10 -4 10
-10z m-5923 -42 c-3 -7 -5 -2 -5 12 0 14 2 19 5 13 2 -7 2 -19 0 -25z m5923
-13 c4 3 10 -2 13 -9 4 -10 0 -14 -13 -13 -10 1 -16 5 -14 9 3 4 0 8 -6 8 -6
0 -8 5 -4 12 6 9 9 9 12 0 2 -7 7 -10 12 -7z m-5923 -27 c-3 -8 -6 -5 -6 6 -1
11 2 17 5 13 3 -3 4 -12 1 -19z m77 -55 c9 -60 7 -91 -11 -131 -9 -20 -15 -40
-15 -44 1 -5 -4 -8 -12 -8 -11 0 -14 9 -11 33 3 17 7 67 11 110 6 85 27 106
38 40z m86 0 c0 -16 -5 -35 -10 -43 -15 -24 -31 2 -24 38 8 40 34 43 34 5z
m2251 10 c27 -10 49 -23 49 -29 0 -6 10 -19 22 -30 l22 -19 -18 29 c-12 19
-14 27 -5 24 16 -5 44 -53 51 -88 3 -14 16 -53 29 -87 13 -34 21 -64 18 -68
-9 -9 -39 6 -39 19 0 6 -16 35 -35 64 -20 29 -34 56 -31 60 3 5 -11 21 -31 38
-38 31 -99 104 -88 104 4 0 29 -8 56 -17z m-2171 -47 c0 -5 -7 -3 -15 4 -8 7
-15 22 -15 34 1 20 2 20 15 -4 8 -14 14 -29 15 -34z m-253 -8 c-2 -13 -4 -5
-4 17 -1 22 1 32 4 23 2 -10 2 -28 0 -40z m427 6 c55 -19 101 -34 103 -34 2 0
3 -5 3 -11 0 -6 16 -30 35 -54 20 -24 31 -45 26 -47 -6 -1 14 -28 44 -59 30
-31 57 -54 60 -51 3 3 18 -7 32 -22 l26 -29 -49 7 c-27 4 -116 29 -199 56 -82
26 -163 51 -179 55 -23 5 -27 8 -15 16 11 7 11 9 1 9 -8 0 -12 6 -9 13 2 6 9
11 15 10 6 -2 10 6 9 17 -2 28 -23 25 -43 -6 -15 -22 -15 -27 -3 -35 19 -12 6
-11 -86 2 -83 13 -90 22 -51 63 39 43 97 25 81 -25 -5 -14 -2 -25 6 -30 22
-14 27 -11 39 26 6 19 15 35 19 35 4 0 8 6 9 13 1 6 5 29 8 50 4 24 2 43 -7
53 -12 15 -14 14 -19 -6 -5 -23 -5 -23 -17 3 -12 27 -12 27 25 21 20 -3 82
-21 136 -40z m2962 21 c13 -10 15 -14 5 -15 -13 0 36 -51 75 -78 16 -11 16
-11 -5 -1 -19 9 -22 8 -15 -3 4 -7 16 -19 26 -26 10 -7 18 -24 18 -38 0 -14 7
-41 15 -62 l15 -37 -23 26 c-13 15 -43 62 -67 105 -24 44 -51 90 -61 103 -31
39 -21 55 17 26z m-1731 -29 c19 8 94 -33 141 -76 79 -72 293 -192 454 -254
175 -68 244 -94 335 -127 50 -18 93 -35 96 -38 11 -10 21 -71 12 -71 -4 0 -15
15 -23 32 -15 33 -45 54 -34 24 11 -28 -10 -17 -28 14 -9 17 -22 30 -28 30
-18 0 27 -75 64 -107 20 -16 36 -37 36 -46 0 -9 11 -33 25 -53 29 -43 25 -58
-6 -23 l-21 24 5 -23 c6 -26 4 -26 -105 15 -68 25 -91 41 -42 29 23 -6 24 -5
13 15 -15 28 -120 158 -148 183 -11 11 -21 29 -21 40 0 15 -3 17 -9 8 -6 -10
-12 -7 -25 12 -19 29 -39 35 -29 9 4 -11 -2 -8 -18 8 -24 27 -89 55 -89 39 0
-4 23 -34 51 -64 28 -31 46 -56 41 -56 -19 0 -70 50 -99 95 -27 43 -58 69 -46
39 9 -24 -8 -15 -43 23 -19 20 -34 32 -34 26 0 -11 70 -83 81 -83 11 0 131
-123 172 -177 22 -29 41 -53 42 -53 2 0 1 10 -2 23 -5 19 -1 17 33 -14 22 -20
53 -44 69 -53 51 -28 -8 -8 -113 38 -75 33 -114 58 -192 127 -75 65 -121 96
-193 130 -71 33 -97 50 -106 71 -7 15 -21 30 -32 33 -11 4 -33 28 -49 53 -16
26 -53 65 -82 87 -29 22 -61 56 -72 75 -10 19 -13 30 -6 23 7 -6 18 -9 25 -7z
m-1045 -50 c24 -5 68 -61 57 -72 -10 -10 -55 27 -60 48 -5 17 -9 19 -19 10
-11 -8 -17 -6 -27 9 -11 18 -10 20 6 16 10 -3 29 -8 43 -11z m-619 -54 c-1
-26 -7 -65 -11 -87 -9 -39 -9 -39 -5 9 3 27 5 69 5 94 0 25 3 42 7 39 4 -4 5
-29 4 -55z m689 13 c0 -5 -5 -3 -10 5 -5 8 -10 20 -10 25 0 6 5 3 10 -5 5 -8
10 -19 10 -25z m135 -6 c124 -32 149 -41 210 -71 56 -27 115 -73 113 -87 -2
-19 3 -31 13 -31 8 0 8 5 -1 15 -20 24 -3 17 49 -20 27 -19 102 -57 167 -83
66 -26 125 -51 132 -56 12 -7 145 -266 137 -266 -11 0 -186 65 -220 82 -48 24
-105 66 -103 76 2 13 -31 81 -44 88 -8 5 -7 0 2 -11 14 -17 13 -18 -5 -11 -14
5 -10 -3 14 -28 19 -20 30 -36 25 -36 -6 0 -21 12 -35 26 -64 69 -199 131
-393 180 -96 24 -150 45 -77 29 30 -6 33 -5 27 11 -4 13 0 11 14 -6 16 -21 20
-22 20 -7 0 30 -30 77 -55 87 -15 6 -25 18 -25 29 0 10 -20 38 -45 62 -70 66
-67 67 80 28z m-795 -15 c0 -8 -5 -12 -10 -9 -6 4 -8 11 -5 16 9 14 15 11 15
-7z m3530 -10 c0 -2 -9 0 -20 6 -11 6 -20 13 -20 16 0 2 9 0 20 -6 11 -6 20
-13 20 -16z m-559 -62 c20 -20 43 -38 50 -40 8 -2 19 -8 24 -13 7 -7 4 -8 -6
-4 -14 5 -15 1 -9 -32 4 -21 17 -65 28 -98 12 -33 23 -70 25 -82 2 -13 14 -35
28 -50 l24 -27 -32 22 c-41 29 -85 81 -78 93 4 5 1 17 -5 26 -9 15 -10 14 -4
-6 l6 -24 -32 25 c-30 24 -57 75 -65 124 -1 11 -17 48 -34 82 -17 34 -31 64
-31 67 0 15 80 -30 111 -63z m569 -14 c0 -9 -4 -19 -9 -22 -13 -9 -34 22 -27
40 3 8 1 25 -5 37 -7 15 -2 12 15 -8 14 -16 25 -38 26 -47z m858 -81 c6 -5 12
-14 12 -19 0 -5 -7 -2 -16 6 -8 9 -22 16 -30 16 -8 0 -14 4 -14 10 0 10 27 3
48 -13z m-3628 3 c0 -5 -4 -10 -10 -10 -5 0 -10 5 -10 10 0 6 5 10 10 10 6 0
10 -4 10 -10z m1075 -8 c-3 -3 -11 0 -18 7 -9 10 -8 11 6 5 10 -3 15 -9 12
-12z m-1868 -24 c-3 -7 -5 -2 -5 12 0 14 2 19 5 13 2 -7 2 -19 0 -25z m3113 1
c0 -11 -4 -18 -10 -14 -5 3 -7 12 -3 20 7 21 13 19 13 -6z m3565 11 c3 -5 1
-10 -4 -10 -6 0 -11 5 -11 10 0 6 2 10 4 10 3 0 8 -4 11 -10z m-3482 -47 c6
-34 -7 -28 -26 12 -16 34 -16 35 2 23 11 -6 21 -22 24 -35z m1177 7 c0 -11 5
-20 12 -20 6 0 4 -6 -7 -13 -28 -21 -13 -82 26 -102 23 -12 29 -21 24 -36 -4
-12 -1 -21 9 -25 10 -4 16 -17 15 -38 -1 -17 -3 -23 -6 -13 -2 9 -9 15 -14 12
-5 -4 -9 -1 -9 4 0 6 -13 23 -30 38 -34 30 -40 49 -11 33 40 -21 44 -9 9 23
-28 25 -38 44 -43 80 -4 26 -5 54 -1 62 8 22 26 18 26 -5z m2267 -79 c-4 -21
-37 54 -36 83 0 14 7 7 20 -23 11 -25 18 -52 16 -60z m-6744 59 c-7 -28 -13
-25 -13 6 0 14 4 23 9 20 5 -3 7 -15 4 -26z m3502 -121 c28 -32 28 -32 3 -10
-16 14 -30 22 -33 20 -2 -3 0 -32 5 -64 5 -32 8 -60 6 -62 -5 -6 -93 139 -101
167 -4 14 -19 38 -34 54 -20 22 -9 18 49 -21 41 -28 89 -66 105 -84z m1410
111 c-3 -5 -15 -10 -26 -10 -11 0 -17 5 -14 10 3 6 15 10 26 10 11 0 17 -4 14
-10z m191 -32 c5 -8 2 -9 -11 -4 -10 4 -21 2 -25 -4 -5 -8 -9 -7 -12 2 -7 17
38 23 48 6z m-5110 -120 c-3 -57 -8 -148 -11 -203 -7 -122 -22 -367 -35 -570
-5 -82 -12 -190 -15 -240 -5 -87 -14 -229 -34 -535 -6 -80 -15 -235 -22 -344
-6 -110 -13 -206 -14 -215 -2 -9 -4 -43 -6 -76 -1 -33 -4 -48 -6 -33 -2 15 3
157 12 315 9 158 20 362 25 453 22 396 61 1045 86 1448 4 56 11 102 16 102 6
0 7 -41 4 -102z m4575 89 c-1 -4 -1 -15 -1 -24 0 -15 -2 -16 -10 -3 -13 20
-13 43 1 38 6 -2 10 -7 10 -11z m619 -47 c0 -5 -2 -10 -4 -10 -3 0 -8 5 -11
10 -3 6 -1 10 4 10 6 0 11 -4 11 -10z m-120 -4 c0 -2 -8 -10 -17 -17 -16 -13
-17 -12 -4 4 13 16 21 21 21 13z m1760 -24 c0 -36 -9 -45 -26 -27 -17 17 -18
29 -2 19 7 -4 8 -3 4 4 -8 14 0 32 15 32 5 0 9 -13 9 -28z m-3543 -21 c0 -11
-5 -18 -9 -15 -4 3 -5 11 -1 19 7 21 12 19 10 -4z m344 -65 c41 -38 63 -63 49
-57 -14 7 -40 29 -59 49 l-33 37 22 -40 c13 -22 32 -49 42 -61 27 -30 22 -38
-9 -14 -25 20 -111 165 -93 158 4 -2 40 -34 81 -72z m1377 19 c0 -32 -4 -32
-23 5 -20 38 -19 43 4 31 11 -6 19 -21 19 -36z m-2892 -32 c19 -20 37 -33 41
-29 3 3 -4 18 -18 33 -21 23 -22 25 -4 19 11 -5 43 -15 70 -23 28 -8 75 -28
105 -43 61 -31 160 -106 160 -121 0 -6 -6 -7 -12 -2 -7 4 9 -20 35 -52 70 -87
108 -143 112 -166 4 -18 86 -120 93 -114 6 5 -34 74 -80 140 -27 36 -48 69
-48 73 0 3 -17 23 -37 44 -48 49 -38 48 23 -2 26 -22 80 -53 119 -71 50 -21
71 -36 71 -49 0 -14 -3 -15 -18 -6 -10 6 -18 14 -18 18 0 4 -9 12 -21 18 -44
24 11 -42 75 -91 13 -9 17 -10 12 -1 -4 7 -2 12 6 13 10 0 10 2 0 6 -6 2 -9 9
-6 14 3 6 0 16 -6 24 -9 11 -9 15 -1 15 6 0 16 -11 21 -25 5 -14 15 -25 21
-25 6 0 9 7 5 15 -5 14 -2 14 24 0 22 -11 30 -24 35 -53 3 -20 19 -76 35 -124
16 -49 27 -88 23 -88 -3 0 -47 20 -98 44 -69 32 -104 56 -136 92 -116 128
-180 177 -301 229 -38 16 -68 34 -68 39 0 10 -70 73 -83 74 -11 2 -87 99 -87
111 0 6 -13 17 -30 26 -16 8 -37 29 -45 45 -21 40 -11 38 31 -7z m1419 -23 c3
-5 1 -18 -4 -27 -9 -16 -10 -16 -11 -2 0 9 -7 20 -16 23 -10 4 -15 0 -13 -12
3 -29 -1 -42 -11 -42 -11 0 -14 53 -3 63 10 11 51 8 58 -3z m-365 -25 c7 -8
21 -65 31 -127 21 -121 31 -150 66 -187 13 -13 21 -27 17 -30 -3 -3 -12 3 -20
13 -16 23 -19 14 -4 -15 6 -10 18 -19 28 -19 9 0 40 -16 67 -36 l50 -36 -35 7
c-41 9 -41 9 29 -39 29 -20 48 -36 42 -36 -14 0 -148 87 -157 102 -4 6 0 15 7
20 11 8 10 9 -3 4 -22 -6 -43 24 -52 74 -3 19 -16 44 -27 56 -13 14 -22 38
-23 66 -2 24 -12 60 -22 78 -17 35 -28 120 -14 120 4 0 13 -7 20 -15z m271 -2
c13 -16 12 -17 -3 -4 -10 7 -18 15 -18 17 0 8 8 3 21 -13z m2066 -7 c-5 -16
-27 -19 -27 -3 0 7 7 14 15 14 9 0 14 -5 12 -11z m-37 -6 c0 -5 -4 -10 -10
-10 -5 0 -10 5 -10 10 0 6 5 10 10 10 6 0 10 -4 10 -10z m97 -14 c-2 -6 -12
-10 -22 -8 -14 3 -15 1 -4 -11 8 -8 22 -13 32 -11 14 2 15 0 7 -17 -6 -10 -13
-19 -16 -19 -3 0 -2 5 1 10 3 6 2 10 -4 10 -14 0 -19 -23 -9 -42 6 -12 5 -18
-2 -18 -6 0 -8 -6 -4 -12 4 -7 4 -10 -1 -6 -4 4 -19 -1 -33 -12 -13 -11 -28
-17 -33 -14 -5 3 -9 0 -9 -6 0 -6 -5 -8 -11 -5 -6 4 -8 14 -5 22 3 8 2 12 -3
9 -13 -8 -62 34 -55 46 4 6 2 8 -3 5 -6 -4 -17 1 -24 11 -7 9 -9 14 -5 10 5
-4 15 0 22 10 9 11 16 13 21 7 11 -14 81 -37 92 -31 5 4 12 0 15 -6 4 -7 4 -3
2 9 -2 13 0 26 5 29 5 3 7 10 3 15 -3 5 -1 16 5 23 13 15 43 17 38 2z m1399
-19 c19 -30 19 -34 4 -74 -8 -23 -19 -45 -24 -50 -5 -4 -6 -3 -2 5 12 21 -8
13 -52 -19 -43 -31 -66 -33 -42 -4 12 14 21 95 11 95 -3 0 -14 -8 -26 -17 -12
-10 5 8 38 40 33 31 62 57 66 57 3 0 15 -15 27 -33z m-2163 -18 c-4 -15 -8
-17 -13 -8 -10 15 -1 41 10 34 5 -3 6 -14 3 -26z m-1136 -27 c1 -24 0 -24 -9
-7 -6 11 -18 28 -27 38 -15 18 -14 18 9 7 17 -7 26 -20 27 -38z m1243 37 c0
-7 15 -10 39 -7 22 2 37 0 35 -4 -3 -5 -16 -8 -29 -8 -12 0 -25 -7 -29 -15 -3
-8 -1 -15 3 -15 5 0 11 5 13 12 3 7 7 8 10 3 2 -6 -3 -18 -14 -27 -10 -10 -18
-13 -18 -7 0 6 -7 17 -15 25 -8 9 -15 13 -15 9 0 -3 -5 -3 -10 0 -7 4 -7 13 0
26 12 21 30 26 30 8z m-1379 -16 c13 -16 12 -17 -3 -4 -10 7 -18 15 -18 17 0
8 8 3 21 -13z m1676 -12 c-1 -16 -5 -27 -8 -25 -3 2 -11 -8 -18 -22 -13 -30
-14 -37 -2 -29 6 3 9 -4 8 -15 -1 -22 -13 -27 -20 -7 -4 9 -8 9 -15 -2 -7 -9
-12 -10 -16 -2 -4 6 0 14 8 17 9 3 16 15 16 26 0 12 -4 17 -12 12 -7 -5 -8 -3
-4 5 5 7 0 19 -10 27 -18 14 -18 14 4 4 18 -9 22 -8 22 6 0 10 3 15 6 11 4 -3
13 0 21 8 20 21 22 19 20 -14z m-709 -16 c0 -13 -4 -22 -9 -19 -5 3 -9 16 -9
30 0 14 4 23 9 20 5 -3 9 -17 9 -31z m1307 25 c-3 -5 -11 -10 -16 -10 -6 0 -7
5 -4 10 3 6 11 10 16 10 6 0 7 -4 4 -10z m-2581 -26 c3 -8 2 -12 -4 -9 -6 3
-10 10 -10 16 0 14 7 11 14 -7z m370 -23 c-3 -3 -15 6 -27 18 l-22 24 27 -19
c14 -10 24 -21 22 -23z m1319 -25 c7 4 8 3 4 -2 -5 -5 -23 -9 -41 -9 -27 -1
-32 2 -28 17 4 17 6 18 29 3 13 -9 29 -13 36 -9z m-2653 -15 c0 -9 12 -22 28
-29 25 -10 25 -11 2 -6 -14 3 -31 13 -37 22 -15 19 -17 46 -3 37 6 -3 10 -14
10 -24z m2241 2 c-12 -20 -14 -14 -5 12 4 9 9 14 11 11 3 -2 0 -13 -6 -23z
m1107 -18 c-3 -3 -9 2 -12 12 -6 14 -5 15 5 6 7 -7 10 -15 7 -18z m-513 -9
c-11 -8 -24 -12 -29 -8 -5 3 -1 9 10 13 31 12 39 10 19 -5z m129 -11 c-6 -16
-24 -21 -24 -7 0 11 11 22 21 22 5 0 6 -7 3 -15z m-363 -15 c13 -7 19 -21 19
-42 0 -31 0 -32 -19 -12 -46 50 -46 78 0 54z m319 -4 c0 -8 -13 -28 -29 -45
l-30 -32 1 31 c1 40 58 85 58 46z m-763 -110 c43 -44 69 -74 58 -66 -11 7 -38
32 -60 55 -22 22 -62 60 -90 84 -38 32 -42 39 -18 25 18 -10 67 -54 110 -98z
m-1107 40 c0 -18 -17 8 -24 34 l-7 25 15 -25 c9 -14 15 -29 16 -34z m3279 -28
c-1 -16 -3 -18 -6 -6 -2 9 -16 19 -31 21 -24 4 -24 4 6 6 27 1 32 -2 31 -21z
m781 18 c0 -2 -8 -10 -17 -17 -16 -13 -17 -12 -4 4 13 16 21 21 21 13z m-4031
-51 c0 -5 -6 -1 -14 9 -8 11 -15 24 -15 30 0 5 7 1 15 -10 8 -10 14 -23 14
-29z m3396 15 c-3 -5 3 -10 15 -10 14 0 19 -4 14 -12 -5 -8 -2 -9 9 -5 20 7
21 3 7 -24 -13 -24 -2 -25 17 -1 12 15 12 13 2 -10 -13 -31 -11 -31 -79 26
-19 17 -27 27 -18 24 10 -4 19 -1 22 8 3 8 8 14 11 14 4 0 3 -4 0 -10z m-154
-33 c-10 -9 -11 -8 -5 6 3 10 9 15 12 12 3 -3 0 -11 -7 -18z m-896 -18 c11
-17 -1 -21 -15 -4 -8 9 -8 15 -2 15 6 0 14 -5 17 -11z m-44 -16 c13 -16 12
-17 -3 -4 -10 7 -18 15 -18 17 0 8 8 3 21 -13z m895 -81 c-12 -40 -29 -78 -36
-85 -10 -10 -10 -8 -2 8 6 11 21 51 32 88 12 38 24 67 26 65 2 -2 -7 -36 -20
-76z m-3102 22 c22 -22 20 -25 -9 -12 -14 6 -25 15 -25 20 0 13 17 9 34 -8z
m76 -17 c0 -7 -6 -20 -12 -28 -7 -8 -12 -12 -11 -10 2 2 -2 10 -8 18 -9 10 -8
13 5 13 9 0 16 5 16 10 0 6 2 10 5 10 3 0 5 -6 5 -13z m2850 3 c12 -8 11 -10
-7 -10 -13 0 -23 5 -23 10 0 13 11 13 30 0z m66 1 c-3 -5 -15 -11 -26 -14 -17
-4 -19 -3 -9 9 12 15 44 20 35 5z m-3171 -36 c14 -13 25 -30 25 -37 0 -22 81
-94 133 -118 40 -19 47 -26 47 -51 0 -29 -1 -29 -28 -15 -36 19 -66 52 -57 65
4 7 -6 11 -27 12 -18 1 -25 3 -15 6 23 6 12 23 -16 23 -15 0 -18 3 -9 8 9 6 1
18 -28 41 -41 33 -79 91 -60 91 6 0 22 -11 35 -25z m3400 -135 c-9 -16 -18
-30 -21 -30 -2 0 2 14 11 30 9 17 18 30 21 30 2 0 -2 -13 -11 -30z m-1262 -85
c5 -28 4 -34 -3 -20 -8 19 -14 73 -6 64 2 -2 6 -22 9 -44z m577 24 c0 -6 -4
-7 -10 -4 -5 3 -10 11 -10 16 0 6 5 7 10 4 6 -3 10 -11 10 -16z m60 11 c0 -5
-2 -10 -4 -10 -3 0 -8 5 -11 10 -3 6 -1 10 4 10 6 0 11 -4 11 -10z m-184 -22
l19 -23 -25 20 c-14 11 -27 21 -29 22 -2 2 0 3 6 3 5 0 18 -10 29 -22z m225
-42 c10 -20 9 -20 -5 -2 -10 12 -23 17 -36 13 -21 -5 -29 8 -7 16 19 6 37 -3
48 -27z m237 20 c3 -4 0 -11 -7 -15 -7 -5 -11 -13 -7 -19 3 -6 2 -13 -4 -17
-5 -3 -10 -2 -10 4 0 5 -13 12 -30 16 -27 6 -39 23 -24 37 7 8 73 3 82 -6z
m-628 -31 c0 -19 5 -35 11 -35 5 0 7 5 4 10 -16 27 10 26 51 -1 24 -17 57 -34
72 -38 17 -5 27 -14 27 -26 0 -10 10 -21 23 -26 12 -5 22 -13 22 -19 0 -6 4
-9 9 -5 14 8 21 -9 11 -25 -5 -8 -5 -22 1 -32 7 -13 6 -18 -5 -18 -8 0 -32 29
-54 63 -41 65 -85 97 -133 97 -22 0 -22 0 -3 -14 26 -19 16 -25 -23 -14 -32 8
-33 10 -33 63 0 30 5 55 10 55 6 0 10 -16 10 -35z m310 -9 c0 -6 -7 -2 -15 8
-8 11 -15 25 -15 30 0 6 7 2 15 -8 8 -11 15 -25 15 -30z m-650 14 c-8 -15 -8
-20 2 -20 10 0 10 -2 -1 -9 -11 -7 -10 -10 5 -14 15 -4 15 -5 -5 -6 -16 -1
-22 3 -18 13 3 8 -1 17 -9 20 -12 5 -13 8 -2 20 20 24 41 20 28 -4z m991 -36
c-11 -27 -20 -43 -20 -37 -1 17 30 95 36 90 2 -3 -5 -26 -16 -53z m-466 36 c4
-6 -5 -10 -20 -10 -15 0 -24 4 -20 10 3 6 12 10 20 10 8 0 17 -4 20 -10z
m-478 -67 c-3 -10 -5 -4 -5 12 0 17 2 24 5 18 2 -7 2 -21 0 -30z m653 9 c0
-15 -2 -15 -10 -2 -13 20 -13 33 0 25 6 -3 10 -14 10 -23z m-50 -37 c0 -17 -2
-17 -10 -5 -5 8 -10 24 -10 35 0 17 2 17 10 5 5 -8 10 -24 10 -35z m317 -17
c-3 -8 -6 -5 -6 6 -1 11 2 17 5 13 3 -3 4 -12 1 -19z m-264 -42 c-12 -27 -23
-36 -37 -34 -11 2 -21 9 -24 16 -2 8 2 10 13 5 14 -5 16 -2 10 15 -4 14 -2 22
5 22 6 0 8 -4 5 -10 -3 -5 1 -10 9 -10 8 0 18 9 21 21 4 11 9 18 11 16 3 -2
-3 -21 -13 -41z m-685 16 c2 -7 -2 -10 -12 -6 -9 3 -16 11 -16 16 0 13 23 5
28 -10z m101 -122 c10 -8 23 -31 30 -50 10 -32 9 -33 -4 -16 -8 11 -15 26 -15
34 0 8 -6 12 -15 8 -8 -3 -15 0 -16 7 0 8 -2 7 -6 -2 -4 -10 -7 -11 -13 -1
-11 18 -44 4 -36 -15 4 -11 -2 -15 -24 -15 -17 0 -30 4 -30 10 0 5 -7 7 -15 4
-8 -4 -15 -1 -15 6 0 6 -5 8 -11 4 -8 -4 -8 0 0 15 9 16 16 19 29 12 20 -10
42 -4 42 12 1 18 38 59 48 53 5 -3 7 9 5 27 -2 19 3 9 12 -23 9 -30 24 -62 34
-70z m317 95 l29 -25 -31 3 c-39 5 -54 14 -54 33 0 21 24 17 56 -11z m-617
-30 c1 6 5 3 11 -5 5 -9 5 -19 -2 -27 -16 -20 -25 -16 -31 14 -6 34 4 54 14
27 4 -10 8 -14 8 -9z m101 -22 c0 -7 -9 -13 -20 -13 -23 0 -26 14 -7 34 13 15
27 4 27 -21z m-30 -45 c0 -5 -11 -8 -25 -8 -25 0 -29 14 -10 36 7 8 13 7 22
-5 7 -9 13 -19 13 -23z m544 16 c20 -8 21 -20 1 -28 -8 -3 -14 0 -12 6 1 6 -9
15 -23 19 -23 6 -23 7 -3 8 12 1 28 -2 37 -5z m-521 -29 c-3 -9 -8 -14 -10
-11 -3 3 -2 9 2 15 9 16 15 13 8 -4z m1008 -12 c-12 -20 -14 -14 -5 12 4 9 9
14 11 11 3 -2 0 -13 -6 -23z m-1081 -7 c0 -3 -4 -8 -10 -11 -5 -3 -10 -1 -10
4 0 6 5 11 10 11 6 0 10 -2 10 -4z m596 -28 c13 -1 20 -7 17 -15 -7 -19 -34
-16 -63 7 l-25 21 25 -6 c14 -3 35 -7 46 -7z m224 -71 l13 -48 -57 -111 c-31
-60 -56 -119 -56 -129 0 -11 -4 -19 -8 -19 -14 0 -143 120 -130 120 7 1 29 15
48 32 28 24 30 28 10 19 -14 -7 -3 6 25 31 78 67 116 111 122 141 7 35 16 25
33 -36z m-930 35 c0 -12 -3 -12 -15 -2 -8 7 -15 13 -15 15 0 1 7 2 15 2 8 0
15 -7 15 -15z m459 -26 c-3 -3 -11 5 -18 17 -13 21 -12 21 5 5 10 -10 16 -20
13 -22z m8 -38 c-3 -8 -6 -5 -6 6 -1 11 2 17 5 13 3 -3 4 -12 1 -19z m598 -56
c11 -6 15 -12 9 -12 -18 0 -76 43 -92 70 -12 20 -7 17 24 -11 21 -20 48 -41
59 -47z m72 6 c-3 -8 -6 -5 -6 6 -1 11 2 17 5 13 3 -3 4 -12 1 -19z m1273 -2
c0 -3 -4 -8 -10 -11 -5 -3 -10 -1 -10 4 0 6 5 11 10 11 6 0 10 -2 10 -4z
m-1622 -245 c10 -6 3 -28 -31 -95 l-45 -86 -5 42 c-2 24 -10 58 -18 76 -12 28
-12 34 1 42 30 19 40 12 28 -21 -17 -49 -3 -44 16 6 18 45 29 52 54 36z m-49
-190 c-6 -18 -13 -30 -15 -28 -2 2 1 18 7 36 6 18 13 30 15 28 2 -2 -1 -18 -7
-36z m-2599 -40 c0 -5 -13 -19 -30 -31 -35 -25 -38 -40 -10 -58 15 -9 19 -9
18 0 -2 7 2 13 7 13 6 1 19 4 30 8 20 7 71 16 110 20 14 1 19 -3 17 -15 -2
-12 4 -18 18 -18 15 0 20 -6 20 -25 0 -14 5 -25 10 -25 6 0 10 -6 10 -14 0 -9
-8 -12 -25 -8 -20 3 -24 1 -19 -12 3 -9 10 -16 16 -16 5 0 6 6 2 13 -5 8 -2 7
9 -2 15 -12 20 -11 36 4 12 10 27 14 39 10 11 -3 23 -2 26 4 11 17 81 6 104
-17 12 -12 20 -22 17 -22 -25 0 -44 -22 -31 -36 12 -13 30 -12 70 4 23 10 32
10 45 -1 9 -8 24 -17 34 -20 9 -4 17 -12 17 -19 0 -9 -3 -9 -10 2 -5 8 -12 12
-15 8 -3 -3 2 -13 11 -23 17 -16 15 -17 -27 -14 -30 3 -44 0 -45 -8 -1 -7 -2
-18 -3 -23 0 -6 -14 -8 -30 -5 -35 6 -72 -22 -49 -36 10 -7 10 -10 -1 -21 -9
-8 -11 -9 -7 -1 3 6 2 14 -3 17 -13 9 -10 58 5 73 14 14 9 43 -8 43 -5 0 -6 5
-2 12 5 7 2 9 -9 5 -12 -4 -14 -2 -10 10 5 13 2 13 -20 -2 -15 -9 -25 -21 -22
-25 3 -5 -3 -6 -14 -3 -22 6 -66 -16 -101 -50 -20 -19 -28 -21 -37 -11 -7 6
-9 16 -5 20 4 5 -1 2 -10 -5 -10 -7 -18 -9 -18 -3 0 14 -61 37 -89 33 -16 -2
-21 1 -15 10 5 9 2 10 -10 6 -12 -5 -19 0 -26 18 -17 44 -85 60 -78 18 2 -13
-5 -18 -26 -20 -29 -2 -29 -2 -8 13 12 8 22 23 22 33 0 10 6 24 14 31 8 6 12
18 9 26 -3 8 1 14 11 14 21 0 21 16 0 24 -8 3 -12 11 -8 17 4 7 7 21 8 33 1
12 9 22 21 24 11 3 24 10 28 18 9 16 37 19 37 5z m2333 -16 c-3 -9 -8 -14 -10
-11 -3 3 -2 9 2 15 9 16 15 13 8 -4z m19 -28 c-5 -20 -10 -24 -22 -17 -9 6
-10 10 -3 10 6 0 15 9 18 21 10 30 16 18 7 -14z m193 -27 c3 -5 0 -7 -9 -4 -8
3 -27 -2 -43 -11 l-28 -17 24 21 c25 23 46 27 56 11z m88 3 c-7 -2 -19 -2 -25
0 -7 3 -2 5 12 5 14 0 19 -2 13 -5z m-120 -59 c9 -3 17 -10 17 -15 0 -6 -7 -6
-19 1 -11 5 -31 10 -45 10 -14 0 -28 5 -32 11 -6 11 25 8 79 -7z m122 -4 c4
-6 -5 -10 -20 -10 -15 0 -24 4 -20 10 3 6 12 10 20 10 8 0 17 -4 20 -10z m200
-70 c10 -11 16 -20 13 -20 -3 0 -13 9 -23 20 -10 11 -16 20 -13 20 3 0 13 -9
23 -20z m-2278 -82 c-2 -13 -4 -3 -4 22 0 25 2 35 4 23 2 -13 2 -33 0 -45z
m-736 43 c-7 -5 -17 -15 -22 -22 -7 -11 -9 -9 -9 6 0 14 7 21 22 22 16 2 19 0
9 -6z m279 -77 c0 -8 5 -14 10 -14 16 0 11 -23 -9 -50 -16 -20 -21 -22 -35
-11 -17 14 -23 36 -7 27 4 -3 7 7 5 22 -3 28 13 55 27 46 5 -3 9 -12 9 -20z
m-1536 4 c-6 -10 34 -20 47 -12 6 3 24 -3 40 -15 15 -11 33 -21 39 -21 6 0 8
-5 5 -10 -4 -6 -10 -8 -15 -5 -4 2 -13 -9 -20 -26 -10 -23 -18 -29 -33 -25
-15 4 -17 2 -8 -7 6 -6 11 -22 11 -35 0 -13 4 -20 10 -17 5 3 7 0 4 -9 -3 -8
-12 -17 -20 -20 -9 -4 -12 -14 -8 -34 4 -22 2 -31 -11 -35 -10 -5 -14 -3 -9 4
6 11 -12 29 -29 29 -4 0 -13 -11 -19 -25 -6 -14 -16 -24 -22 -23 -6 0 -24 -4
-39 -10 -32 -13 -51 -7 -43 13 3 8 1 15 -4 17 -8 2 -16 28 -19 61 -1 4 -13 7
-27 7 -26 0 -58 23 -47 34 4 3 -3 6 -15 6 -19 0 -20 3 -12 26 6 14 8 30 4 35
-5 9 0 11 29 13 6 1 20 9 30 19 10 10 25 16 32 13 8 -3 17 -2 19 3 3 4 20 7
38 6 18 -2 39 2 45 7 7 6 22 8 33 5 11 -3 22 -1 25 3 6 10 -33 25 -57 21 -10
-1 -18 3 -18 8 0 6 15 10 34 8 19 -1 32 -5 30 -9z m280 2 c22 17 30 7 16 -19
-17 -33 -60 -22 -68 17 -2 10 2 10 17 0 15 -9 23 -9 35 2z m244 -159 c-15 -10
-19 -22 -16 -47 2 -19 0 -35 -4 -36 -5 -2 -10 -14 -13 -27 -6 -32 -14 -38 -25
-21 -7 11 -10 12 -10 2 0 -17 -57 -6 -82 15 -16 14 -16 17 5 34 l22 19 -27 -6
c-31 -7 -33 -3 -18 27 9 16 7 19 -10 19 -12 0 -19 4 -15 10 3 5 15 6 27 1 28
-10 70 -2 65 13 -3 7 16 11 58 11 56 0 61 -1 43 -14z m487 -104 c19 -19 19
-27 1 -27 -20 0 -36 -52 -24 -74 8 -14 4 -24 -16 -45 -17 -18 -24 -34 -20 -44
7 -19 20 -22 30 -6 3 6 15 9 25 6 11 -3 19 -1 19 5 0 5 4 7 10 3 19 -12 -1
-30 -36 -32 -23 -1 -41 -10 -54 -25 -18 -22 -19 -22 -20 -3 -1 11 -4 15 -6 9
-4 -10 -74 47 -74 61 0 16 -31 35 -57 35 -37 0 -53 -16 -53 -55 0 -24 7 -35
25 -45 14 -8 23 -20 21 -27 -6 -15 19 -79 34 -88 13 -8 13 21 -1 47 -15 29 4
47 31 30 26 -16 43 -15 37 2 -10 25 6 27 30 4 30 -28 29 -33 -5 -47 -15 -7
-40 -23 -55 -37 -15 -14 -32 -22 -39 -18 -6 4 -8 3 -5 -3 4 -6 0 -13 -8 -17
-9 -3 -15 0 -15 9 0 17 -33 29 -58 21 -18 -6 -19 -4 -25 59 -1 14 -8 25 -16
25 -7 0 -22 12 -33 26 -14 16 -27 24 -39 21 -16 -4 -19 1 -19 28 0 19 -5 37
-11 41 -6 3 -8 17 -5 30 4 14 0 37 -9 54 -21 40 -20 84 1 76 9 -4 23 -1 30 5
10 8 21 6 46 -9 24 -15 38 -18 50 -11 10 6 19 6 23 0 3 -6 12 -8 19 -5 8 3 17
1 21 -5 8 -14 51 -14 78 1 12 6 40 10 61 9 l39 -2 -24 21 -24 21 52 -4 c29 -3
59 -12 68 -20z m309 -28 c-8 -13 -24 -1 -24 18 0 13 3 13 15 3 8 -7 12 -16 9
-21z m-196 0 c5 -13 32 -11 32 2 0 5 5 7 11 3 8 -4 7 -9 -2 -15 -12 -7 -12
-12 0 -31 7 -13 10 -20 6 -16 -11 10 -34 -16 -32 -37 1 -10 -4 -20 -12 -23 -9
-3 -11 0 -6 8 5 9 4 11 -3 6 -20 -12 -44 9 -58 50 -11 34 -11 41 3 56 16 18
54 16 61 -3z m298 -8 c-3 -5 2 -8 12 -7 11 1 18 -7 19 -24 1 -14 0 -20 -3 -14
-3 8 -18 9 -47 3 -57 -11 -78 -10 -44 3 15 5 27 14 27 20 0 6 -11 7 -27 3 -19
-4 -25 -3 -18 3 9 9 36 17 73 21 7 0 11 -3 8 -8z m128 -74 c16 -12 16 -14 -2
-30 -16 -15 -21 -15 -37 -3 -16 12 -17 16 -6 30 16 19 22 20 45 3z m-1094 -11
c0 4 11 -3 25 -16 29 -27 34 -56 9 -46 -9 4 -22 2 -29 -4 -10 -8 -15 -6 -20 9
-4 13 -15 21 -27 21 l-21 0 21 19 c12 10 18 22 14 27 -4 4 1 2 11 -5 9 -7 17
-10 17 -5z m-2403 -58 c-3 -8 -6 -5 -6 6 -1 11 2 17 5 13 3 -3 4 -12 1 -19z
m2479 -45 c3 -10 10 -26 15 -35 6 -11 6 -18 0 -18 -5 0 -11 6 -14 13 -3 8 -9
6 -20 -8 -17 -23 -18 -22 -34 22 -8 24 -8 33 1 37 24 10 47 5 52 -11z m5247
-3 c-3 -11 -9 -20 -15 -20 -5 0 -4 9 2 20 6 11 12 20 14 20 2 0 2 -9 -1 -20z
m-7726 -32 c-3 -7 -5 -2 -5 12 0 14 2 19 5 13 2 -7 2 -19 0 -25z m7761 14 c2
-7 -2 -10 -12 -6 -9 3 -16 11 -16 16 0 13 23 5 28 -10z m-4658 -53 c0 -8 5 -7
16 2 13 10 17 10 24 -1 5 -8 6 -17 3 -20 -3 -3 -8 1 -11 9 -3 9 -6 10 -12 2
-3 -7 -18 -14 -33 -16 -19 -4 -29 0 -37 15 -10 18 -8 20 20 20 16 0 30 -5 30
-11z m-180 -27 c0 -15 -2 -15 -10 -2 -13 20 -13 33 0 25 6 -3 10 -14 10 -23z
m10 -42 c0 -30 -108 -50 -117 -22 -3 6 2 12 10 12 8 0 22 11 31 25 16 24 18
25 46 10 17 -9 30 -20 30 -25z m-341 -59 c8 -5 11 -16 6 -30 -5 -17 -9 -18
-20 -8 -7 6 -11 15 -8 20 2 4 -1 7 -6 7 -6 0 -11 -6 -11 -12 0 -9 -3 -8 -9 2
-18 27 16 41 48 21z m-347 -43 c-12 -12 -35 -1 -27 12 3 5 13 6 21 3 10 -4 12
-9 6 -15z m66 -9 c-11 -6 -24 -6 -34 -1 -12 7 -8 9 18 10 26 1 30 -1 16 -9z
m62 -11 c0 -6 -6 -5 -15 2 -8 7 -15 14 -15 16 0 2 7 1 15 -2 8 -4 15 -11 15
-16z m50 -2 c0 -11 -19 -15 -25 -6 -3 5 1 10 9 10 9 0 16 -2 16 -4z m5788
-171 c-3 -3 -9 2 -12 12 -6 14 -5 15 5 6 7 -7 10 -15 7 -18z m-7439 -194 c8
-5 -14 -7 -55 -4 -38 3 -71 7 -73 9 -9 8 115 3 128 -5z m149 -8 c-21 -2 -57
-2 -80 0 -24 2 -7 4 37 4 44 0 63 -2 43 -4z m125 -10 c-13 -2 -35 -2 -50 0
-16 2 -5 4 22 4 28 0 40 -2 28 -4z m105 -10 c-10 -2 -26 -2 -35 0 -10 3 -2 5
17 5 19 0 27 -2 18 -5z m85 -10 c-13 -2 -33 -2 -45 0 -13 2 -3 4 22 4 25 0 35
-2 23 -4z m107 -13 c17 -6 9 -7 -25 -3 -27 3 -52 7 -54 9 -8 7 54 2 79 -6z
m210 -60 c20 -6 21 -8 5 -8 -11 0 -29 3 -40 8 -25 11 1 11 35 0z m272 -119
c46 -27 92 -57 103 -66 16 -14 15 -14 -10 1 -120 72 -184 108 -235 134 -33 17
-60 33 -60 35 0 8 107 -48 202 -104z m2843 -12 c-22 -4 -53 -8 -70 -7 -29 1
-29 1 5 8 19 4 51 7 70 8 l35 0 -40 -9z m-115 -19 c-8 -5 -26 -9 -40 -9 l-25
1 25 8 c14 4 32 8 40 9 13 1 13 0 0 -9z m160 -10 c0 -5 -7 -10 -16 -10 -8 0
-12 5 -9 10 3 6 10 10 16 10 5 0 9 -4 9 -10z m98 0 c17 0 32 -4 32 -9 0 -11
-102 -20 -114 -10 -15 13 5 31 28 25 11 -3 36 -6 54 -6z m-348 -15 c-14 -8
-32 -14 -40 -14 -8 0 -1 7 15 14 39 18 57 18 25 0z m487 1 c4 -3 2 -10 -3 -16
-11 -11 -94 10 -94 23 0 10 87 4 97 -7z m-4147 -10 c0 -2 2 -11 6 -19 4 -12
-5 -12 -67 0 -40 7 -75 15 -77 18 -3 3 27 5 66 5 40 0 72 -2 72 -4z m1210 -62
c0 -3 -13 4 -30 16 -16 12 -30 24 -30 26 0 3 14 -4 30 -16 17 -12 30 -24 30
-26z m3105 18 c-3 -3 -11 0 -18 7 -9 10 -8 11 6 5 10 -3 15 -9 12 -12z m2018
-52 c20 -45 19 -46 -7 -5 -14 22 -26 49 -25 60 0 17 2 16 11 -5 6 -14 15 -36
21 -50z m-2813 45 c0 -2 -14 -12 -30 -20 -18 -9 -28 -21 -24 -27 4 -6 3 -8 -3
-5 -6 4 -34 -14 -62 -39 -28 -25 -51 -43 -51 -39 0 12 47 56 101 95 51 37 69
46 69 35z m2510 -4 c0 -6 -9 -9 -19 -8 -11 0 -17 5 -15 9 7 11 34 10 34 -1z
m-4743 -7 c-3 -3 -12 -4 -19 -1 -8 3 -5 6 6 6 11 1 17 -2 13 -5z m2256 -35
c-9 -9 -12 -7 -10 9 1 14 5 18 11 12 7 -7 6 -14 -1 -21z m-2896 15 c-3 -3 -12
-4 -19 -1 -8 3 -5 6 6 6 11 1 17 -2 13 -5z m276 -21 c-7 -2 -21 -2 -30 0 -10
3 -4 5 12 5 17 0 24 -2 18 -5z m299 -13 c243 -26 439 -65 494 -99 18 -12 18
-12 -1 -7 -138 36 -493 96 -568 96 -95 0 -209 12 -195 21 19 13 57 11 270 -11z
m4565 6 c-18 -14 -18 -14 0 -19 10 -2 1 -4 -20 -3 l-38 0 33 18 c40 21 50 22
25 4z m-4912 -6 l20 -9 -20 1 c-11 0 -33 4 -50 8 l-30 8 30 0 c17 0 39 -3 50
-8z m52 -16 c-3 -3 -12 -4 -19 -1 -8 3 -5 6 6 6 11 1 17 -2 13 -5z m88 -19
c54 -17 33 -18 -30 -1 -27 8 -41 14 -30 14 11 0 38 -5 60 -13z m4705 1 c0 -2
-7 -7 -16 -10 -8 -3 -12 -2 -9 4 6 10 25 14 25 6z m-4041 -22 c9 -8 -55 -2
-74 6 -13 6 -5 7 25 3 25 -3 47 -7 49 -9z m1748 0 c21 -6 21 -7 5 -32 -16 -24
-16 -25 4 -14 l21 11 -21 -42 c-39 -79 -77 -128 -107 -141 -17 -7 -30 -17 -30
-21 2 -13 -52 -13 -72 0 -16 11 -16 14 4 39 12 15 23 25 26 22 6 -6 83 73 83
85 0 16 -15 9 -34 -15 -10 -14 -23 -23 -29 -20 -7 2 -21 -9 -32 -25 -11 -17
-21 -28 -24 -26 -5 5 47 85 55 85 3 0 2 -4 -1 -10 -3 -5 -2 -10 2 -10 5 0 14
9 21 20 7 11 19 20 26 20 8 0 27 18 43 40 31 43 29 42 60 34z m-1710 -10 c-3
-3 -12 -4 -19 -1 -8 3 -5 6 6 6 11 1 17 -2 13 -5z m63 -34 c19 -11 31 -19 25
-19 -5 0 -26 8 -45 19 -19 11 -30 19 -25 19 6 0 26 -8 45 -19z m-830 -11 c36
-5 83 -13 105 -19 53 -13 98 -13 90 0 -13 22 24 19 85 -6 36 -14 70 -29 75
-34 6 -4 21 -11 35 -15 13 -4 37 -17 52 -28 22 -16 41 -20 100 -18 43 1 68 -2
60 -7 -8 -5 68 -12 180 -16 310 -12 318 -23 12 -18 l-281 5 -54 -25 c-30 -13
-59 -23 -64 -22 -6 2 -109 15 -229 29 -121 14 -227 30 -235 35 -21 12 -17 12
124 -5 151 -18 228 -18 285 -1 36 11 54 11 93 1 45 -11 66 -5 30 10 -121 48
-229 80 -348 100 -177 31 -245 45 -245 52 0 3 15 2 33 -2 17 -3 61 -11 97 -16z
m75 -45 c178 -32 275 -58 275 -74 0 -4 -20 -13 -45 -20 -35 -10 -69 -10 -162
-1 -227 23 -227 23 -290 87 l-56 56 44 -7 c24 -4 130 -22 234 -41z m2285 42
c0 -2 -8 -10 -17 -17 -16 -13 -17 -12 -4 4 13 16 21 21 21 13z m144 -46 c-15
-27 -31 -50 -36 -50 -5 0 3 22 19 50 15 27 32 50 36 50 5 0 -4 -22 -19 -50z
m2306 28 c11 -7 20 -16 20 -20 0 -12 -28 -10 -35 2 -4 6 -15 8 -25 5 -10 -3
-25 1 -33 10 -14 14 -17 14 -25 -1 -7 -13 -13 -14 -29 -5 -22 11 -82 0 -93
-19 -7 -11 -80 -2 -80 10 0 9 32 20 80 26 19 3 37 7 40 10 9 10 159 -5 180
-18z m-530 2 c-20 -13 -47 -13 -55 0 -4 6 9 10 32 10 28 0 34 -3 23 -10z
m-3225 -50 c17 -11 26 -20 22 -20 -11 0 -67 29 -67 35 0 10 16 4 45 -15z m53
-54 c2 -10 -1 -23 -6 -28 -12 -12 -36 27 -27 43 10 15 29 5 33 -15z m3782 0
c0 -2 -7 -7 -16 -10 -8 -3 -12 -2 -9 4 6 10 25 14 25 6z m90 -6 c0 -5 -4 -10
-10 -10 -5 0 -10 5 -10 10 0 6 5 10 10 10 6 0 10 -4 10 -10z m-3850 -45 c0 -8
-4 -15 -9 -15 -13 0 -22 16 -14 24 11 11 23 6 23 -9z m3733 8 c-7 -2 -19 -2
-25 0 -7 3 -2 5 12 5 14 0 19 -2 13 -5z m-2590 -39 c3 -4 -1 -13 -9 -21 -18
-18 -27 -13 -18 11 6 17 16 20 27 10z m2830 -9 c-3 -9 -8 -14 -10 -11 -3 3 -2
9 2 15 9 16 15 13 8 -4z m17 -50 c11 -13 10 -14 -4 -9 -9 3 -16 10 -16 15 0
13 6 11 20 -6z m-2925 -65 c-4 -12 -9 -19 -12 -17 -3 3 -2 15 2 27 4 12 9 19
12 17 3 -3 2 -15 -2 -27z m180 -65 c-27 -7 -75 -18 -107 -24 -31 -7 -66 -21
-79 -32 -12 -10 -26 -19 -30 -19 -4 0 -16 -3 -26 -6 -10 -4 9 10 42 31 58 36
151 63 220 63 23 1 18 -2 -20 -13z m-1972 -43 l37 -7 -35 -28 -35 -28 -35 27
c-19 15 -50 30 -68 34 -26 6 -19 8 33 8 36 1 82 -2 103 -6z m1904 -8 c-3 -3
-12 -4 -19 -1 -8 3 -5 6 6 6 11 1 17 -2 13 -5z m161 -1 c-15 -2 -42 -2 -60 0
-18 2 -6 4 27 4 33 0 48 -2 33 -4z m-359 -37 c-2 -2 -15 -9 -29 -15 -24 -11
-24 -11 -6 3 16 13 49 24 35 12z m-2105 -56 l61 -7 -56 -2 c-37 -1 -62 4 -75
15 -10 8 -13 12 -5 8 8 -4 42 -10 75 -14z m2077 -3 c-10 -9 -11 -8 -5 6 3 10
9 15 12 12 3 -3 0 -11 -7 -18z m-1811 -6 c38 -8 30 -9 -50 -9 -52 1 -85 3 -72
5 12 2 20 9 16 14 -6 10 3 9 106 -10z m1860 -26 c-46 -18 -61 -18 -30 0 14 8
34 14 45 14 13 0 8 -5 -15 -14z m-1737 -12 c-7 -2 -19 -2 -25 0 -7 3 -2 5 12
5 14 0 19 -2 13 -5z m1583 -29 c-4 -9 -9 -15 -11 -12 -3 3 -3 13 1 22 4 9 9
15 11 12 3 -3 3 -13 -1 -22z m-2086 0 c0 -2 -7 -4 -15 -4 -8 0 -15 4 -15 10 0
5 7 7 15 4 8 -4 15 -8 15 -10z m115 -14 c3 -6 -1 -7 -9 -4 -18 7 -21 14 -7 14
6 0 13 -4 16 -10z m-45 -35 c28 -14 50 -27 50 -30 0 -4 -110 43 -119 51 -15
13 28 0 69 -21z m95 -37 l30 -33 -40 35 c-22 19 -44 39 -50 44 -5 5 -1 4 10
-2 11 -6 33 -25 50 -44z m45 1 c57 -68 47 -70 -13 -3 -27 30 -45 54 -39 54 5
0 28 -23 52 -51z m1920 -29 c-8 -5 -17 -7 -19 -4 -3 3 1 9 9 14 8 5 17 7 19 4
3 -3 -1 -9 -9 -14z m-2070 -10 c18 -12 2 -12 -25 0 -13 6 -15 9 -5 9 8 0 22
-4 30 -9z m222 -85 c12 -23 5 -17 -48 45 l-38 45 38 -35 c21 -19 42 -44 48
-55z m-121 28 c13 -16 12 -17 -3 -4 -17 13 -22 21 -14 21 2 0 10 -8 17 -17z
m1863 -25 c-10 -13 -20 -25 -21 -27 -2 -2 -3 1 -3 7 0 11 27 42 37 42 3 0 -2
-10 -13 -22z m-1823 -5 c13 -16 12 -17 -3 -4 -10 7 -18 15 -18 17 0 8 8 3 21
-13z m130 -25 l23 -33 -27 24 c-15 14 -27 28 -27 33 0 15 8 8 31 -24z m17
-290 c30 -30 5 -37 -29 -8 -23 19 -23 19 -3 20 11 0 25 -5 32 -12z m22 -48
c-8 -5 -19 -10 -25 -10 -5 0 -3 5 5 10 8 5 20 10 25 10 6 0 3 -5 -5 -10z
m1510 -326 c0 -2 -9 0 -20 6 -11 6 -20 13 -20 16 0 2 9 0 20 -6 11 -6 20 -13
20 -16z m56 -35 c4 -8 1 -8 -14 0 -12 6 -24 16 -28 22 -4 8 -1 8 14 0 12 -6
24 -16 28 -22z m64 -69 c0 -5 -4 -10 -10 -10 -5 0 -10 5 -10 10 0 6 5 10 10
10 6 0 10 -4 10 -10z m-3070 -95 c0 -2 -10 -9 -22 -15 -22 -11 -22 -10 -4 4
21 17 26 19 26 11z m68 -7 c8 -10 2 -14 -24 -15 -33 -3 -47 10 -21 20 21 9 34
7 45 -5z m3742 -228 c-8 -5 -19 -10 -25 -10 -5 0 -3 5 5 10 8 5 20 10 25 10 6
0 3 -5 -5 -10z m-2108 -100 c-4 -3 -10 -9 -15 -15 -4 -6 -7 -1 -5 10 2 15 -2
19 -17 17 -15 -2 -17 -1 -6 7 15 10 57 -8 43 -19z m-132 6 c0 -3 -4 -8 -10
-11 -5 -3 -10 -1 -10 4 0 6 5 11 10 11 6 0 10 -2 10 -4z m-1565 -66 c-11 -5
-29 -9 -40 -9 -17 -1 -17 1 -5 9 8 5 26 9 40 9 23 0 23 -1 5 -9z m-60 -160
c-3 -5 -12 -7 -20 -3 -21 7 -19 13 6 13 11 0 18 -4 14 -10z"/>
<path d="M1967 13590 c3 -11 9 -17 15 -14 5 3 4 12 -3 20 -16 19 -18 18 -12
-6z"/>
<path d="M863 12725 c0 -44 2 -61 4 -37 2 23 2 59 0 80 -2 20 -4 1 -4 -43z"/>
<path d="M2772 12444 c10 -10 20 -16 22 -13 3 3 -5 11 -17 18 -21 13 -21 12
-5 -5z"/>
<path d="M2859 12381 c24 -23 48 -41 54 -41 13 0 -48 55 -78 71 -11 5 0 -8 24
-30z"/>
<path d="M3180 12146 c0 -2 8 -10 18 -17 15 -13 16 -12 3 4 -13 16 -21 21 -21
13z"/>
<path d="M7041 12444 c0 -11 3 -14 6 -6 3 7 2 16 -1 19 -3 4 -6 -2 -5 -13z"/>
<path d="M1720 12271 c0 -5 5 -13 10 -16 6 -3 10 -2 10 4 0 5 -4 13 -10 16 -5
3 -10 2 -10 -4z"/>
<path d="M1060 12196 c0 -9 30 -14 35 -6 4 6 -3 10 -14 10 -12 0 -21 -2 -21
-4z"/>
<path d="M5317 11837 c-6 -15 10 -37 26 -37 12 0 4 43 -9 47 -6 2 -14 -3 -17
-10z"/>
<path d="M5271 11761 c-8 -5 -22 -8 -30 -6 -9 2 -21 -7 -27 -20 -10 -20 -8
-25 11 -33 14 -7 27 -7 36 0 11 8 11 11 1 15 -17 7 15 32 41 33 10 0 15 5 12
10 -8 12 -25 13 -44 1z"/>
<path d="M5175 11709 c3 -9 -1 -22 -10 -29 -10 -8 -15 -9 -15 -2 0 6 -7 9 -16
5 -15 -5 -14 -7 1 -16 24 -13 65 27 47 45 -11 11 -12 10 -7 -3z"/>
<path d="M5255 11681 c-11 -5 -23 -7 -27 -4 -5 2 -8 -1 -8 -7 0 -11 49 -3 65
11 11 11 -2 11 -30 0z"/>
<path d="M7107 11639 c-9 -6 -15 -14 -12 -20 10 -15 22 -10 28 11 3 11 4 20 4
20 -1 0 -10 -5 -20 -11z"/>
<path d="M6715 11583 c-27 -7 -77 -63 -71 -80 7 -18 33 -17 44 3 5 8 23 16 40
16 31 1 31 2 12 15 -11 8 -18 19 -14 24 4 6 14 3 25 -7 15 -14 19 -14 19 -3 0
15 -19 40 -29 38 -4 -1 -15 -4 -26 -6z"/>
<path d="M5533 11412 c-8 -5 -7 -13 5 -27 9 -11 16 -18 15 -16 -2 2 2 10 7 16
13 15 -10 37 -27 27z"/>
<path d="M5810 11354 c0 -8 5 -12 10 -9 6 4 8 11 5 16 -9 14 -15 11 -15 -7z"/>
<path d="M7031 11336 c-7 -9 -18 -13 -24 -9 -5 3 -7 1 -3 -5 3 -6 2 -13 -3
-17 -6 -3 -8 -12 -4 -20 3 -8 -1 -15 -8 -15 -7 0 -10 -2 -7 -5 7 -7 88 25 88
34 -1 3 -6 16 -14 29 -11 21 -14 22 -25 8z"/>
<path d="M5508 11283 c14 -5 16 -33 2 -33 -5 0 -10 -5 -10 -12 0 -6 3 -8 6 -5
4 4 15 -3 25 -14 21 -24 25 -25 45 -4 16 16 10 40 -8 29 -7 -4 -8 -2 -4 5 4 6
12 9 17 6 5 -4 9 -1 9 4 0 6 -7 11 -16 11 -8 0 -13 3 -11 8 3 4 -11 7 -31 8
-21 0 -31 -1 -24 -3z"/>
<path d="M5680 11285 c0 -9 40 -45 50 -45 21 0 9 31 -16 40 -29 11 -34 12 -34
5z"/>
<path d="M6524 11275 c-10 -8 -29 -15 -40 -15 -24 0 -48 -23 -36 -35 4 -5 1
-5 -5 -1 -16 9 -53 -10 -53 -27 0 -23 22 -37 41 -27 11 7 20 7 24 0 12 -19 42
-10 79 24 28 27 36 42 35 68 0 18 -3 27 -6 19 -4 -9 -8 -10 -12 -2 -5 8 -13 7
-27 -4z"/>
<path d="M6780 10998 c0 -8 -13 -27 -30 -43 -29 -28 -41 -53 -19 -39 8 5 8 1
0 -14 -6 -11 -11 -29 -11 -39 1 -15 5 -13 25 10 14 16 29 26 34 23 11 -7 24
41 16 54 -4 6 -1 10 4 10 16 0 13 26 -4 40 -12 10 -15 10 -15 -2z"/>
<path d="M5490 10760 c6 -11 15 -20 20 -20 14 0 1 28 -16 34 -12 4 -12 2 -4
-14z"/>
<path d="M6752 10635 c-30 -33 -40 -64 -25 -78 11 -11 32 13 26 30 -5 12 -1
14 15 9 11 -4 23 -2 27 4 3 5 2 10 -3 10 -15 0 -23 28 -10 36 7 5 8 2 3 -6 -5
-8 -4 -11 3 -6 9 5 7 36 -2 36 -2 0 -17 -16 -34 -35z"/>
<path d="M5860 10651 c0 -7 -5 -9 -12 -5 -7 5 -8 3 -3 -5 5 -9 10 -10 18 -2 6
6 8 14 4 18 -4 3 -7 1 -7 -6z"/>
<path d="M5696 10633 c-6 -14 -5 -15 5 -6 7 7 10 15 7 18 -3 3 -9 -2 -12 -12z"/>
<path d="M6681 10614 c0 -11 3 -14 6 -6 3 7 2 16 -1 19 -3 4 -6 -2 -5 -13z"/>
<path d="M6567 10601 c-9 -12 -9 -13 1 -7 7 4 12 2 12 -8 0 -9 -7 -13 -19 -11
-13 2 -20 -3 -23 -19 -4 -20 0 -23 28 -23 23 0 36 7 44 23 7 12 9 27 6 33 -4
6 0 11 10 11 27 0 5 15 -22 15 -14 1 -30 -6 -37 -14z"/>
<path d="M6647 10576 c-4 -10 -1 -13 9 -9 7 3 14 9 14 14 0 14 -17 10 -23 -5z"/>
<path d="M6696 10567 c3 -10 9 -15 12 -12 3 3 0 11 -7 18 -10 9 -11 8 -5 -6z"/>
<path d="M5600 10461 c0 -5 11 -11 25 -13 20 -4 23 -3 14 8 -13 16 -39 19 -39
5z"/>
<path d="M6557 10431 c-3 -12 -1 -21 3 -21 14 0 19 15 11 29 -6 9 -10 7 -14
-8z"/>
<path d="M6844 10385 c-4 -8 -11 -12 -17 -8 -5 3 -7 1 -3 -5 11 -19 -12 -23
-29 -5 -16 16 -18 16 -27 0 -5 -10 -13 -15 -18 -12 -5 3 -19 -4 -32 -17 -16
-16 -21 -32 -19 -56 2 -24 -3 -38 -19 -52 -26 -22 -27 -30 -5 -42 11 -7 23 -5
39 5 13 9 28 12 36 7 15 -10 60 31 60 55 0 9 7 18 16 22 9 3 13 12 9 22 -5 13
-4 14 6 4 16 -16 29 -17 29 -2 0 5 -5 7 -10 4 -11 -7 -7 66 5 85 3 6 1 10 -5
10 -6 0 -13 -7 -16 -15z"/>
<path d="M6320 10309 c0 -5 5 -7 10 -4 6 3 10 8 10 11 0 2 -4 4 -10 4 -5 0
-10 -5 -10 -11z"/>
<path d="M6720 10180 c0 -5 7 -10 15 -10 8 0 15 5 15 10 0 6 -7 10 -15 10 -8
0 -15 -4 -15 -10z"/>
<path d="M6470 10105 c-7 -8 -17 -12 -23 -8 -6 3 -7 1 -3 -5 10 -17 19 -15 34
8 14 23 10 26 -8 5z"/>
<path d="M6220 10086 c0 -9 5 -16 10 -16 6 0 10 4 10 9 0 6 -4 13 -10 16 -5 3
-10 -1 -10 -9z"/>
<path d="M6545 9789 c-4 -6 -4 -13 -1 -16 3 -4 6 -1 6 6 0 7 5 9 10 6 6 -3 10
-1 10 4 0 14 -17 14 -25 0z"/>
<path d="M3360 11791 c0 -6 4 -13 10 -16 6 -3 7 1 4 9 -7 18 -14 21 -14 7z"/>
<path d="M1030 12008 c0 -7 40 -98 43 -98 12 0 -9 72 -24 86 -10 9 -19 15 -19
12z"/>
<path d="M1110 11834 c0 -6 7 -19 15 -30 8 -10 14 -14 14 -9 0 6 -6 19 -14 29
-8 11 -15 15 -15 10z"/>
<path d="M1180 11790 c0 -11 4 -20 9 -20 5 0 7 9 4 20 -3 11 -7 20 -9 20 -2 0
-4 -9 -4 -20z"/>
<path d="M1550 11727 c15 -42 41 -89 46 -84 7 6 -20 67 -40 92 -15 19 -16 19
-6 -8z"/>
<path d="M2498 11784 c6 -11 20 -28 33 -39 l23 -20 -23 32 c-26 38 -49 56 -33
27z"/>
<path d="M2634 11748 c9 -12 22 -23 30 -24 23 -3 8 22 -20 35 -25 11 -25 11
-10 -11z"/>
<path d="M2491 11734 c0 -11 3 -14 6 -6 3 7 2 16 -1 19 -3 4 -6 -2 -5 -13z"/>
<path d="M2570 11694 c0 -8 51 -94 56 -94 2 0 -7 23 -21 50 -23 45 -35 60 -35
44z"/>
<path d="M2810 11679 c7 -11 14 -19 16 -16 7 7 -7 37 -17 37 -6 0 -5 -9 1 -21z"/>
<path d="M2540 11662 c0 -5 7 -15 15 -22 8 -7 15 -8 15 -2 0 5 -7 15 -15 22
-8 7 -15 8 -15 2z"/>
<path d="M2935 11550 c3 -5 14 -10 23 -10 15 0 15 2 2 10 -20 13 -33 13 -25 0z"/>
<path d="M2950 11519 c0 -16 31 -71 37 -66 2 3 -1 15 -7 27 -6 11 -9 26 -7 33
2 7 14 -8 26 -31 12 -24 25 -42 27 -39 7 7 -23 64 -38 74 -19 11 -38 12 -38 2z"/>
<path d="M3040 11473 c0 -5 9 -19 20 -33 l20 -25 -11 33 c-10 28 -29 45 -29
25z"/>
<path d="M3100 11421 c0 -5 7 -11 14 -14 10 -4 13 -1 9 9 -6 15 -23 19 -23 5z"/>
<path d="M2310 11710 c0 -5 5 -10 11 -10 5 0 7 5 4 10 -3 6 -8 10 -11 10 -2 0
-4 -4 -4 -10z"/>
<path d="M2199 11482 c6 -12 16 -24 22 -28 8 -4 8 -1 0 14 -6 12 -16 24 -22
28 -8 4 -8 1 0 -14z"/>
<path d="M2350 11463 c1 -5 12 -21 26 -38 27 -31 28 -29 4 18 -12 25 -30 37
-30 20z"/>
<path d="M2246 11405 c9 -14 19 -24 21 -21 6 6 -20 46 -30 46 -4 0 0 -11 9
-25z"/>
<path d="M2507 11386 c10 -13 19 -23 21 -21 7 6 -19 45 -29 45 -5 0 -2 -11 8
-24z"/>
<path d="M2580 11350 c29 -41 47 -50 24 -12 -10 17 -24 34 -32 37 -8 3 -5 -7
8 -25z"/>
<path d="M2629 11331 c6 -10 8 -21 4 -24 -3 -4 13 -31 36 -61 22 -30 41 -60
41 -66 0 -5 5 -9 12 -7 6 1 21 -15 32 -35 12 -21 27 -40 34 -43 10 -3 10 0 1
16 -19 37 -2 31 33 -11 19 -22 38 -40 42 -40 6 0 -7 20 -81 121 -38 52 -145
169 -154 169 -6 0 -6 -8 0 -19z"/>
<path d="M2730 11292 c6 -13 14 -21 18 -18 3 4 -2 14 -12 24 -18 16 -18 16 -6
-6z"/>
<path d="M2814 11243 c9 -17 21 -35 27 -39 13 -8 -1 21 -26 51 -15 19 -15 18
-1 -12z"/>
<path d="M2528 11236 c26 -33 62 -62 62 -48 0 8 -27 35 -65 62 -17 13 -16 11
3 -14z"/>
<path d="M1215 11490 c3 -5 8 -10 11 -10 2 0 4 5 4 10 0 6 -5 10 -11 10 -5 0
-7 -4 -4 -10z"/>
<path d="M1070 11390 c6 -11 13 -20 16 -20 2 0 0 9 -6 20 -6 11 -13 20 -16 20
-2 0 0 -9 6 -20z"/>
<path d="M3526 11437 c3 -10 9 -15 12 -12 3 3 0 11 -7 18 -10 9 -11 8 -5 -6z"/>
<path d="M3678 11333 c34 -75 92 -171 107 -177 8 -3 15 -12 15 -19 0 -8 7 -20
15 -27 14 -11 14 -10 6 13 -20 53 -50 103 -79 133 -16 17 -37 50 -48 72 -10
23 -21 42 -25 42 -5 0 0 -17 9 -37z"/>
<path d="M3914 11135 c69 -123 99 -167 126 -183 l25 -14 -26 23 c-14 13 -45
60 -68 104 -23 44 -55 96 -72 115 -24 29 -21 21 15 -45z"/>
<path d="M3850 11091 c0 -5 5 -13 10 -16 6 -3 10 -2 10 4 0 5 -4 13 -10 16 -5
3 -10 2 -10 -4z"/>
<path d="M3930 11041 c0 -6 4 -13 10 -16 6 -3 7 1 4 9 -7 18 -14 21 -14 7z"/>
<path d="M1470 11435 c0 -5 5 -17 10 -25 5 -8 10 -10 10 -5 0 6 -5 17 -10 25
-5 8 -10 11 -10 5z"/>
<path d="M1708 11322 c14 -12 19 -26 16 -39 -9 -32 42 -127 83 -159 20 -15 32
-21 28 -13 -5 8 -11 22 -12 32 -8 52 -101 197 -125 197 -6 0 -2 -8 10 -18z"/>
<path d="M1470 11272 c0 -12 19 -26 26 -19 2 2 -2 10 -11 17 -9 8 -15 8 -15 2z"/>
<path d="M1910 11221 c0 -6 4 -13 10 -16 6 -3 7 1 4 9 -7 18 -14 21 -14 7z"/>
<path d="M1950 11214 c0 -11 42 -75 47 -71 2 3 -6 21 -18 41 -20 34 -29 44
-29 30z"/>
<path d="M1700 11201 c0 -5 7 -15 17 -22 15 -13 15 -12 4 9 -12 23 -21 28 -21
13z"/>
<path d="M1939 11052 c6 -12 16 -24 22 -28 8 -4 8 -1 0 14 -6 12 -16 24 -22
28 -8 4 -8 1 0 -14z"/>
<path d="M1997 11036 c9 -20 20 -36 25 -36 10 0 -18 56 -32 65 -6 4 -3 -10 7
-29z"/>
<path d="M3040 11169 c0 -15 100 -222 105 -217 11 10 -36 141 -65 182 -32 47
-40 54 -40 35z"/>
<path d="M3030 11008 c0 -9 5 -20 11 -23 17 -11 20 0 4 21 -13 17 -14 17 -15
2z"/>
<path d="M3080 10981 c0 -5 7 -12 16 -15 14 -5 15 -4 4 9 -14 17 -20 19 -20 6z"/>
<path d="M866 11058 c-7 -33 -4 -58 5 -52 8 4 10 74 3 74 -2 0 -6 -10 -8 -22z"/>
<path d="M3220 11102 c0 -5 7 -15 15 -22 8 -7 15 -8 15 -2 0 5 -7 15 -15 22
-8 7 -15 8 -15 2z"/>
<path d="M991 10944 c-1 -6 -15 -9 -33 -8 l-33 3 35 -9 c39 -9 45 -8 37 12 -3
7 -6 8 -6 2z"/>
<path d="M1145 10900 c3 -5 8 -10 11 -10 2 0 4 5 4 10 0 6 -5 10 -11 10 -5 0
-7 -4 -4 -10z"/>
<path d="M1270 10870 c6 -11 13 -20 16 -20 2 0 0 9 -6 20 -6 11 -13 20 -16 20
-2 0 0 -9 6 -20z"/>
<path d="M1444 10828 c3 -11 0 -18 -7 -19 -7 0 -1 -5 12 -10 32 -13 34 -9 9
21 -13 16 -18 19 -14 8z"/>
<path d="M1490 10802 c0 -12 19 -26 26 -19 2 2 -2 10 -11 17 -9 8 -15 8 -15 2z"/>
<path d="M2450 11052 c0 -5 7 -15 15 -22 8 -7 15 -8 15 -2 0 5 -7 15 -15 22
-8 7 -15 8 -15 2z"/>
<path d="M2761 10820 c45 -49 84 -90 87 -90 4 0 -78 100 -122 148 -16 17 -34
32 -39 32 -4 0 29 -40 74 -90z"/>
<path d="M2854 10711 c4 -5 21 -20 39 -32 l32 -23 -20 23 c-22 25 -62 51 -51
32z"/>
<path d="M3230 10640 c6 -11 15 -20 20 -20 14 0 1 28 -16 34 -12 4 -12 2 -4
-14z"/>
<path d="M3290 10621 c0 -5 7 -15 17 -22 15 -13 15 -12 4 9 -12 23 -21 28 -21
13z"/>
<path d="M3380 10411 c0 -5 7 -11 14 -14 10 -4 13 -1 9 9 -6 15 -23 19 -23 5z"/>
<path d="M3436 10386 c3 -9 11 -16 16 -16 13 0 5 23 -10 28 -7 2 -10 -2 -6
-12z"/>
<path d="M1530 10971 c0 -5 7 -15 17 -22 15 -13 15 -12 4 9 -12 23 -21 28 -21
13z"/>
<path d="M1580 10962 c0 -5 7 -15 15 -22 8 -7 15 -8 15 -2 0 5 -7 15 -15 22
-8 7 -15 8 -15 2z"/>
<path d="M1670 10773 c0 -13 29 -38 35 -31 3 3 -4 13 -15 23 -11 10 -20 13
-20 8z"/>
<path d="M1962 10738 c11 -33 66 -128 74 -128 4 0 -5 29 -15 45 -3 6 -6 15 -6
20 0 10 -55 95 -61 95 -2 0 2 -15 8 -32z"/>
<path d="M1730 10752 c0 -12 19 -26 26 -19 2 2 -2 10 -11 17 -9 8 -15 8 -15 2z"/>
<path d="M1790 10738 c0 -9 5 -20 11 -23 17 -11 20 0 4 21 -13 17 -14 17 -15
2z"/>
<path d="M2007 10733 c8 -23 43 -69 43 -57 0 11 -38 74 -45 74 -2 0 -1 -8 2
-17z"/>
<path d="M2171 10654 c0 -11 3 -14 6 -6 3 7 2 16 -1 19 -3 4 -6 -2 -5 -13z"/>
<path d="M2210 10651 c0 -5 5 -13 10 -16 6 -3 10 -2 10 4 0 5 -4 13 -10 16 -5
3 -10 2 -10 -4z"/>
<path d="M2276 10615 c9 -14 19 -24 21 -21 7 7 -16 46 -28 46 -5 0 -2 -11 7
-25z"/>
<path d="M2145 10510 c3 -5 8 -10 11 -10 2 0 4 5 4 10 0 6 -5 10 -11 10 -5 0
-7 -4 -4 -10z"/>
<path d="M2326 10458 c14 -27 27 -48 29 -48 9 0 -10 40 -31 66 l-24 29 26 -47z"/>
<path d="M2380 10410 c0 -5 5 -10 11 -10 5 0 7 5 4 10 -3 6 -8 10 -11 10 -2 0
-4 -4 -4 -10z"/>
<path d="M3700 10926 c0 -2 7 -9 15 -16 9 -7 15 -8 15 -2 0 5 -7 12 -15 16 -8
3 -15 4 -15 2z"/>
<path d="M3783 10867 c3 -9 11 -34 17 -57 6 -23 13 -40 16 -37 8 7 -17 97 -29
104 -6 4 -8 0 -4 -10z"/>
<path d="M3780 10727 c0 -8 6 -20 14 -26 12 -10 13 -8 9 9 -7 25 -23 37 -23
17z"/>
<path d="M4128 10594 c9 -25 18 -39 20 -31 3 15 -24 77 -33 77 -2 0 4 -21 13
-46z"/>
<path d="M3046 10367 c3 -10 9 -15 12 -12 3 3 0 11 -7 18 -10 9 -11 8 -5 -6z"/>
<path d="M3040 10222 c6 -13 14 -21 18 -18 3 4 -2 14 -12 24 -18 16 -18 16 -6
-6z"/>
<path d="M3528 10053 c7 -3 16 -2 19 1 4 3 -2 6 -13 5 -11 0 -14 -3 -6 -6z"/>
<path d="M3484 10028 c-4 -6 -3 -8 4 -4 6 3 22 2 36 -4 14 -5 26 -6 26 -1 0 5
-10 11 -22 15 -32 8 -36 8 -44 -6z"/>
<path d="M3430 10015 c0 -2 14 -11 30 -20 17 -9 30 -12 30 -7 0 5 -11 14 -25
20 -28 13 -35 14 -35 7z"/>
<path d="M3521 9884 c0 -11 3 -14 6 -6 3 7 2 16 -1 19 -3 4 -6 -2 -5 -13z"/>
<path d="M4075 9740 c3 -5 8 -10 11 -10 2 0 4 5 4 10 0 6 -5 10 -11 10 -5 0
-7 -4 -4 -10z"/>
<path d="M4100 9731 c0 -5 7 -12 16 -15 14 -5 15 -4 4 9 -14 17 -20 19 -20 6z"/>
<path d="M2278 8203 c7 -3 16 -2 19 1 4 3 -2 6 -13 5 -11 0 -14 -3 -6 -6z"/>
<path d="M4700 6769 c0 -5 5 -7 10 -4 6 3 10 8 10 11 0 2 -4 4 -10 4 -5 0 -10
-5 -10 -11z"/>
<path d="M4550 6580 c0 -5 5 -10 11 -10 5 0 7 5 4 10 -3 6 -8 10 -11 10 -2 0
-4 -4 -4 -10z"/>
<path d="M2530 6701 c21 -12 90 -25 70 -13 -8 5 -31 12 -50 15 -22 4 -29 3
-20 -2z"/>
<path d="M2150 6709 c0 -8 58 -59 68 -59 4 -1 72 -9 152 -19 118 -15 153 -16
185 -6 l40 12 -75 16 c-116 26 -370 65 -370 56z"/>
</g>
</svg>
